# Blender 4.1.1
# www.blender.org
mtllib player.mtl
o head
v -1.000000 2.458673 -0.642207
v -1.000000 3.923027 -0.642207
v 1.000000 2.458673 -0.642207
v 1.000000 3.923027 -0.642207
v -1.000000 2.458673 0.642207
v -1.000000 3.923027 0.642207
v 1.000000 2.458673 0.642207
v 1.000000 3.923027 0.642207
vn -0.0000 -0.0000 -1.0000
vn 1.0000 -0.0000 -0.0000
vn -0.0000 -0.0000 1.0000
vn -1.0000 -0.0000 -0.0000
vn -0.0000 -1.0000 -0.0000
vn -0.0000 1.0000 -0.0000
vt 0.625000 0.000000
vt 0.375000 0.250000
vt 0.375000 0.000000
vt 0.625000 0.250000
vt 0.375000 0.500000
vt 0.625000 0.500000
vt 0.375000 0.750000
vt 0.625000 0.750000
vt 0.375000 1.000000
vt 0.125000 0.750000
vt 0.125000 0.500000
vt 0.875000 0.500000
vt 0.625000 1.000000
vt 0.875000 0.750000
s 0
f 2/1/1 3/2/1 1/3/1
f 4/4/2 7/5/2 3/2/2
f 8/6/3 5/7/3 7/5/3
f 6/8/4 1/9/4 5/7/4
f 7/5/5 1/10/5 3/11/5
f 4/12/6 6/8/6 8/6/6
f 2/1/1 4/4/1 3/2/1
f 4/4/2 8/6/2 7/5/2
f 8/6/3 6/8/3 5/7/3
f 6/8/4 2/13/4 1/9/4
f 7/5/5 5/7/5 1/10/5
f 4/12/6 2/14/6 6/8/6
o body
v 1.000000 0.262312 0.496479
v 1.000000 2.295802 0.496479
v -1.000000 0.262312 0.496479
v -1.000000 2.295802 0.496479
v 1.000000 0.262312 -0.496479
v 1.000000 2.295802 -0.496479
v -1.000000 0.262312 -0.496479
v -1.000000 2.295802 -0.496479
v 1.000000 0.946522 0.496479
v -1.000000 0.946522 0.496479
v -1.000000 0.946522 -0.496479
v 1.000000 0.946522 -0.496479
v -1.000000 0.271881 0.496479
v -1.000000 0.271881 -0.496479
v 1.000000 0.271881 -0.496479
v 1.000000 0.271881 0.496479
v -0.000000 -0.402759 0.496479
v -0.000000 2.295802 0.496479
v 0.000000 -0.402759 -0.496479
v 0.000000 2.295802 -0.496479
v 0.000000 0.946522 -0.496479
v -0.000000 0.946522 0.496479
v -0.000000 0.271881 0.496479
v 0.000000 0.271881 -0.496479
vn -0.0000 -0.0000 1.0000
vn -1.0000 -0.0000 -0.0000
vn -0.0000 -0.0000 -1.0000
vn 1.0000 -0.0000 -0.0000
vn 0.5538 -0.8327 -0.0000
vn -0.0000 1.0000 -0.0000
vn -0.5538 -0.8327 -0.0000
vt 0.625000 0.125000
vt 0.500000 0.250000
vt 0.500000 0.125000
vt 0.625000 0.250000
vt 0.500000 0.500000
vt 0.625000 0.625000
vt 0.500000 0.750000
vt 0.500000 0.625000
vt 0.625000 0.750000
vt 0.500000 1.000000
vt 0.375000 0.625000
vt 0.125000 0.750000
vt 0.125000 0.625000
vt 0.875000 0.625000
vt 0.437500 1.000000
vt 0.437500 0.750000
vt 0.437500 0.625000
vt 0.437500 0.500000
vt 0.437500 0.250000
vt 0.437500 0.125000
vt 0.375000 0.250000
vt 0.375000 0.125000
vt 0.375000 0.500000
vt 0.375000 0.750000
vt 0.375000 1.000000
vt 0.375000 0.000000
vt 0.500000 0.000000
vt 0.437500 0.000000
vt 0.875000 0.500000
vt 0.625000 0.500000
vt 0.125000 0.500000
vt 0.625000 0.000000
vt 0.625000 1.000000
vt 0.875000 0.750000
s 0
f 26/15/7 18/16/7 30/17/7
f 12/18/8 19/19/8 18/16/8
f 28/20/9 20/21/9 29/22/9
f 14/23/10 17/24/10 20/21/10
f 27/25/11 9/26/11 25/27/11
f 26/28/12 14/23/12 28/20/12
f 20/21/10 24/29/10 23/30/10
f 29/22/9 23/30/9 32/31/9
f 18/16/8 22/32/8 21/33/8
f 30/17/7 21/33/7 31/34/7
f 31/34/7 11/35/7 25/36/7
f 21/33/8 15/37/8 11/35/8
f 32/31/9 13/38/9 27/25/9
f 23/30/10 9/39/10 13/38/10
f 15/37/9 32/31/9 27/25/9
f 9/40/7 31/34/7 25/36/7
f 17/41/7 31/34/7 24/42/7
f 19/19/9 32/31/9 22/32/9
f 12/43/12 28/20/12 16/44/12
f 15/37/13 25/27/13 11/45/13
f 16/44/9 29/22/9 19/19/9
f 10/46/7 30/17/7 17/41/7
f 26/15/7 12/18/7 18/16/7
f 12/18/8 16/44/8 19/19/8
f 28/20/9 14/23/9 20/21/9
f 14/23/10 10/47/10 17/24/10
f 27/25/11 13/38/11 9/26/11
f 26/28/12 10/48/12 14/23/12
f 20/21/10 17/24/10 24/29/10
f 29/22/9 20/21/9 23/30/9
f 18/16/8 19/19/8 22/32/8
f 30/17/7 18/16/7 21/33/7
f 31/34/7 21/33/7 11/35/7
f 21/33/8 22/32/8 15/37/8
f 32/31/9 23/30/9 13/38/9
f 23/30/10 24/29/10 9/39/10
f 15/37/9 22/32/9 32/31/9
f 9/40/7 24/42/7 31/34/7
f 17/41/7 30/17/7 31/34/7
f 19/19/9 29/22/9 32/31/9
f 12/43/12 26/28/12 28/20/12
f 15/37/13 27/25/13 25/27/13
f 16/44/9 28/20/9 29/22/9
f 10/46/7 26/15/7 30/17/7
o R_arm
v -1.247960 0.200000 -0.252782
v -1.247960 2.200000 -0.252782
v -1.247960 0.200000 0.252782
v -1.247960 2.200000 0.252782
v -1.752040 0.200000 -0.252782
v -1.752040 2.200000 -0.252782
v -1.752040 0.200000 0.252782
v -1.752040 2.200000 0.252782
vn 1.0000 -0.0000 -0.0000
vn -0.0000 -0.0000 1.0000
vn -1.0000 -0.0000 -0.0000
vn -0.0000 -0.0000 -1.0000
vn -0.0000 -1.0000 -0.0000
vn -0.0000 1.0000 -0.0000
vt 0.625000 0.000000
vt 0.375000 0.250000
vt 0.375000 0.000000
vt 0.625000 0.250000
vt 0.375000 0.500000
vt 0.625000 0.500000
vt 0.375000 0.750000
vt 0.625000 0.750000
vt 0.375000 1.000000
vt 0.125000 0.750000
vt 0.125000 0.500000
vt 0.875000 0.500000
vt 0.625000 1.000000
vt 0.875000 0.750000
s 0
f 34/49/14 35/50/14 33/51/14
f 36/52/15 39/53/15 35/50/15
f 40/54/16 37/55/16 39/53/16
f 38/56/17 33/57/17 37/55/17
f 39/53/18 33/58/18 35/59/18
f 36/60/19 38/56/19 40/54/19
f 34/49/14 36/52/14 35/50/14
f 36/52/15 40/54/15 39/53/15
f 40/54/16 38/56/16 37/55/16
f 38/56/17 34/61/17 33/57/17
f 39/53/18 37/55/18 33/58/18
f 36/60/19 34/62/19 38/56/19
o L_arm
v 1.752040 0.200000 -0.252782
v 1.752040 2.200000 -0.252782
v 1.752040 0.200000 0.252782
v 1.752040 2.200000 0.252782
v 1.247960 0.200000 -0.252782
v 1.247960 2.200000 -0.252782
v 1.247960 0.200000 0.252782
v 1.247960 2.200000 0.252782
vn 1.0000 -0.0000 -0.0000
vn -0.0000 -0.0000 1.0000
vn -1.0000 -0.0000 -0.0000
vn -0.0000 -0.0000 -1.0000
vn -0.0000 -1.0000 -0.0000
vn -0.0000 1.0000 -0.0000
vt 0.625000 0.000000
vt 0.375000 0.250000
vt 0.375000 0.000000
vt 0.625000 0.250000
vt 0.375000 0.500000
vt 0.625000 0.500000
vt 0.375000 0.750000
vt 0.625000 0.750000
vt 0.375000 1.000000
vt 0.125000 0.750000
vt 0.125000 0.500000
vt 0.875000 0.500000
vt 0.625000 1.000000
vt 0.875000 0.750000
s 0
f 42/63/20 43/64/20 41/65/20
f 44/66/21 47/67/21 43/64/21
f 48/68/22 45/69/22 47/67/22
f 46/70/23 41/71/23 45/69/23
f 47/67/24 41/72/24 43/73/24
f 44/74/25 46/70/25 48/68/25
f 42/63/20 44/66/20 43/64/20
f 44/66/21 48/68/21 47/67/21
f 48/68/22 46/70/22 45/69/22
f 46/70/23 42/75/23 41/71/23
f 47/67/24 45/69/24 41/72/24
f 44/74/25 42/76/25 46/70/25
