# Blender 4.1.1
# www.blender.org
mtllib EnemyGear.mtl
o 円柱
v 0.000000 -0.050000 1.000000
v 0.000000 0.050000 1.000000
v -0.195090 -0.050000 0.980785
v -0.195090 0.050000 0.980785
v -0.382683 -0.050000 0.923880
v -0.382683 0.050000 0.923880
v -0.555570 -0.050000 0.831470
v -0.555570 0.050000 0.831470
v -0.707107 -0.050000 0.707107
v -0.707107 0.050000 0.707107
v -0.831470 -0.050000 0.555570
v -0.831470 0.050000 0.555570
v -0.923880 -0.050000 0.382683
v -0.923880 0.050000 0.382683
v -0.980785 -0.050000 0.195090
v -0.980785 0.050000 0.195090
v -1.000000 -0.050000 0.000000
v -1.000000 0.050000 0.000000
v -0.980785 -0.050000 -0.195090
v -0.980785 0.050000 -0.195090
v -0.923880 -0.050000 -0.382683
v -0.923880 0.050000 -0.382683
v -0.831470 -0.050000 -0.555570
v -0.831470 0.050000 -0.555570
v -0.707107 -0.050000 -0.707107
v -0.707107 0.050000 -0.707107
v -0.555570 -0.050000 -0.831470
v -0.555570 0.050000 -0.831470
v -0.382683 -0.050000 -0.923880
v -0.382683 0.050000 -0.923880
v -0.195090 -0.050000 -0.980785
v -0.195090 0.050000 -0.980785
v 0.000000 -0.050000 -1.000000
v 0.000000 0.050000 -1.000000
v 0.195090 -0.050000 -0.980785
v 0.195090 0.050000 -0.980785
v 0.382683 -0.050000 -0.923880
v 0.382683 0.050000 -0.923880
v 0.555570 -0.050000 -0.831470
v 0.555570 0.050000 -0.831470
v 0.707107 -0.050000 -0.707107
v 0.707107 0.050000 -0.707107
v 0.831470 -0.050000 -0.555570
v 0.831470 0.050000 -0.555570
v 0.923880 -0.050000 -0.382683
v 0.923880 0.050000 -0.382683
v 0.980785 -0.050000 -0.195090
v 0.980785 0.050000 -0.195090
v 1.000000 -0.050000 0.000000
v 1.000000 0.050000 0.000000
v 0.980785 -0.050000 0.195090
v 0.980785 0.050000 0.195090
v 0.923880 -0.050000 0.382683
v 0.923880 0.050000 0.382683
v 0.831470 -0.050000 0.555570
v 0.831470 0.050000 0.555570
v 0.707107 -0.050000 0.707107
v 0.707107 0.050000 0.707107
v 0.555570 -0.050000 0.831470
v 0.555570 0.050000 0.831470
v 0.382683 -0.050000 0.923880
v 0.382683 0.050000 0.923880
v 0.195090 -0.050000 0.980785
v 0.195090 0.050000 0.980785
v 0.014420 -0.050000 1.146407
v 0.014420 0.050000 1.146407
v -0.237796 0.050000 1.121566
v -0.237796 -0.050000 1.121566
v -0.425389 -0.050000 1.064660
v -0.425389 0.050000 1.064660
v -0.648899 0.050000 0.945191
v -0.648899 -0.050000 0.945191
v -0.800436 -0.050000 0.820828
v -0.800436 0.050000 0.820828
v -0.961214 0.050000 0.624920
v -0.961214 -0.050000 0.624920
v -1.053623 -0.050000 0.452033
v -1.053623 0.050000 0.452033
v -1.127192 0.050000 0.209510
v -1.127192 -0.050000 0.209510
v -1.146407 -0.050000 0.014420
v -1.146407 0.050000 0.014420
v -1.121566 0.050000 -0.237796
v -1.121566 -0.050000 -0.237796
v -1.064660 -0.050000 -0.425389
v -1.064660 0.050000 -0.425389
v -0.945191 0.050000 -0.648899
v -0.945191 -0.050000 -0.648899
v -0.820828 -0.050000 -0.800436
v -0.820828 0.050000 -0.800436
v -0.624920 0.050000 -0.961214
v -0.624920 -0.050000 -0.961214
v -0.452033 -0.050000 -1.053623
v -0.452033 0.050000 -1.053623
v -0.209510 0.050000 -1.127192
v -0.209510 -0.050000 -1.127192
v -0.014420 -0.050000 -1.146407
v -0.014420 0.050000 -1.146407
v 0.237796 0.050000 -1.121566
v 0.237796 -0.050000 -1.121566
v 0.425389 -0.050000 -1.064660
v 0.425389 0.050000 -1.064660
v 0.648899 0.050000 -0.945191
v 0.648899 -0.050000 -0.945191
v 0.800436 -0.050000 -0.820828
v 0.800436 0.050000 -0.820828
v 0.961214 0.050000 -0.624920
v 0.961214 -0.050000 -0.624920
v 1.053623 -0.050000 -0.452033
v 1.053623 0.050000 -0.452033
v 1.127192 0.050000 -0.209510
v 1.127192 -0.050000 -0.209510
v 1.146407 -0.050000 -0.014420
v 1.146407 0.050000 -0.014420
v 1.121566 0.050000 0.237796
v 1.121566 -0.050000 0.237796
v 1.064660 -0.050000 0.425389
v 1.064660 0.050000 0.425389
v 0.945191 0.050000 0.648899
v 0.945191 -0.050000 0.648899
v 0.820828 -0.050000 0.800436
v 0.820828 0.050000 0.800436
v 0.624920 0.050000 0.961214
v 0.624920 -0.050000 0.961214
v 0.452033 -0.050000 1.053623
v 0.452033 0.050000 1.053623
v 0.209510 0.050000 1.127192
v 0.209510 -0.050000 1.127192
v 0.227552 0.050000 0.000000
v 0.223179 0.050000 0.044393
v 0.223179 0.050000 -0.044393
v 0.189202 0.050000 -0.126421
v 0.189202 0.050000 0.126421
v 0.160903 0.050000 -0.160903
v 0.210230 0.050000 -0.087080
v 0.210230 0.050000 0.087080
v 0.126421 0.050000 -0.189202
v 0.126421 0.050000 0.189202
v 0.044393 0.050000 0.223179
v -0.044393 0.050000 0.223179
v 0.000000 0.050000 0.227552
v 0.087080 0.050000 -0.210230
v 0.087080 0.050000 0.210230
v 0.160903 0.050000 0.160903
v 0.044393 0.050000 -0.223179
v -0.044393 0.050000 -0.223179
v 0.000000 0.050000 -0.227552
v -0.126421 0.050000 0.189202
v -0.126421 0.050000 -0.189202
v -0.087080 0.050000 0.210230
v -0.087080 0.050000 -0.210230
v -0.189202 0.050000 -0.126421
v -0.189202 0.050000 0.126421
v -0.227552 0.050000 0.000000
v -0.223179 0.050000 -0.044393
v -0.223179 0.050000 0.044393
v -0.210230 0.050000 0.087080
v -0.160903 0.050000 -0.160903
v -0.210230 0.050000 -0.087080
v -0.160903 0.050000 0.160903
v 0.044393 -0.050000 0.223179
v -0.044393 -0.050000 0.223179
v 0.000000 -0.050000 0.227552
v -0.126421 -0.050000 -0.189202
v -0.087080 -0.050000 -0.210230
v -0.126421 -0.050000 0.189202
v -0.087080 -0.050000 0.210230
v -0.160903 -0.050000 -0.160903
v -0.189202 -0.050000 -0.126421
v -0.189202 -0.050000 0.126421
v -0.227552 -0.050000 0.000000
v -0.223179 -0.050000 0.044393
v -0.210230 -0.050000 -0.087080
v -0.223179 -0.050000 -0.044393
v -0.210230 -0.050000 0.087080
v -0.160903 -0.050000 0.160903
v 0.227552 -0.050000 0.000000
v 0.210230 -0.050000 -0.087080
v 0.223179 -0.050000 -0.044393
v 0.223179 -0.050000 0.044393
v 0.189202 -0.050000 -0.126421
v 0.189202 -0.050000 0.126421
v 0.160903 -0.050000 -0.160903
v 0.210230 -0.050000 0.087080
v 0.126421 -0.050000 -0.189202
v 0.126421 -0.050000 0.189202
v 0.044393 -0.050000 -0.223179
v -0.044393 -0.050000 -0.223179
v 0.000000 -0.050000 -0.227552
v 0.087080 -0.050000 -0.210230
v 0.087080 -0.050000 0.210230
v 0.160903 -0.050000 0.160903
vn -0.0980 -0.0000 0.9952
vn -0.8819 -0.0000 0.4714
vn -0.4714 -0.0000 0.8819
vn -0.0000 1.0000 -0.0000
vn -0.7730 -0.0000 0.6344
vn -0.7730 -0.0000 -0.6344
vn -0.9569 -0.0000 0.2903
vn -0.0000 -1.0000 -0.0000
vn -0.9952 -0.0000 -0.0980
vn -0.8819 -0.0000 -0.4714
vn -0.6344 -0.0000 -0.7730
vn -0.4714 -0.0000 -0.8819
vn -0.2903 -0.0000 -0.9569
vn 0.0980 -0.0000 -0.9952
vn 0.4714 -0.0000 -0.8819
vn 0.6344 -0.0000 -0.7730
vn 0.7730 -0.0000 -0.6344
vn 0.9569 -0.0000 -0.2903
vn 0.7730 -0.0000 0.6344
vn 0.9952 -0.0000 0.0980
vn 0.8819 -0.0000 0.4714
vn 0.8819 -0.0000 -0.4714
vn 0.6344 -0.0000 0.7730
vn 0.2903 -0.0000 0.9569
vn -0.2903 -0.0000 0.9569
vn -0.6344 -0.0000 0.7730
vn -0.9952 -0.0000 0.0980
vn -0.9569 -0.0000 -0.2903
vn -0.0980 -0.0000 -0.9952
vn 0.2903 -0.0000 -0.9569
vn 0.9952 -0.0000 -0.0980
vn 0.9569 -0.0000 0.2903
vn 0.4714 -0.0000 0.8819
vn 0.0980 -0.0000 0.9952
vt 0.004930 0.981805
vt 0.185270 0.964129
vt 0.185270 0.981805
vt 0.004930 0.592826
vt 0.185270 0.579560
vt 0.185270 0.592826
vt 0.004930 0.919921
vt 0.185270 0.902245
vt 0.185270 0.919921
vt 0.228173 0.380232
vt 0.207323 0.372904
vt 0.218353 0.365534
vt 0.004930 0.858037
vt 0.185270 0.840361
vt 0.185270 0.858037
vt 0.004930 0.871303
vt 0.004930 0.796154
vt 0.185270 0.778477
vt 0.185270 0.796154
vt 0.289038 0.197412
vt 0.269113 0.206974
vt 0.271701 0.193964
vt 0.004930 0.734270
vt 0.185270 0.716593
vt 0.185270 0.734270
vt 0.185270 0.053548
vt 0.004930 0.066813
vt 0.004930 0.053548
vt 0.004930 0.672386
vt 0.185270 0.654710
vt 0.185270 0.672386
vt 0.384164 0.296853
vt 0.400623 0.311602
vt 0.387612 0.314190
vt 0.004930 0.610502
vt 0.185270 0.610502
vt 0.004930 0.345290
vt 0.185270 0.332025
vt 0.185270 0.345290
vt 0.004930 0.548618
vt 0.185270 0.530942
vt 0.185270 0.548618
vt 0.355079 0.392731
vt 0.347752 0.413581
vt 0.340382 0.402552
vt 0.004930 0.486735
vt 0.185270 0.469058
vt 0.185270 0.486735
vt 0.289038 0.017940
vt 0.269113 0.008378
vt 0.286450 0.004930
vt 0.004930 0.424851
vt 0.185270 0.407174
vt 0.185270 0.424851
vt 0.004930 0.623768
vt 0.004930 0.362967
vt 0.185270 0.362967
vt 0.208140 0.098838
vt 0.198578 0.078913
vt 0.211588 0.081501
vt 0.004930 0.301083
vt 0.185270 0.283407
vt 0.185270 0.301083
vt 0.004930 0.902245
vt 0.185270 0.888979
vt 0.004930 0.239199
vt 0.185270 0.221523
vt 0.185270 0.239199
vt 0.271701 0.236741
vt 0.286450 0.220282
vt 0.289038 0.233292
vt 0.004930 0.177316
vt 0.185270 0.159639
vt 0.185270 0.177316
vt 0.004930 0.097755
vt 0.185270 0.084490
vt 0.185270 0.097755
vt 0.004930 0.115432
vt 0.185270 0.115432
vt 0.387612 0.098838
vt 0.397174 0.078913
vt 0.400623 0.096250
vt 0.306714 0.412765
vt 0.310893 0.338889
vt 0.313737 0.336045
vt 0.282015 0.310012
vt 0.279780 0.313356
vt 0.185270 0.035871
vt 0.004930 0.376232
vt 0.377399 0.065170
vt 0.317511 0.101720
vt 0.315972 0.098004
vt 0.255370 0.187199
vt 0.218353 0.065170
vt 0.278241 0.113632
vt 0.004930 0.950863
vt 0.185270 0.933187
vt 0.185270 0.950863
vt 0.004930 0.888979
vt 0.185270 0.871303
vt 0.004930 0.827096
vt 0.185270 0.809419
vt 0.185270 0.827096
vt 0.004930 0.765212
vt 0.185270 0.747535
vt 0.185270 0.765212
vt 0.004930 0.703328
vt 0.185270 0.685651
vt 0.185270 0.703328
vt 0.004930 0.641444
vt 0.185270 0.623768
vt 0.185270 0.641444
vt 0.004930 0.579560
vt 0.185270 0.561884
vt 0.004930 0.517676
vt 0.185270 0.500000
vt 0.185270 0.517676
vt 0.004930 0.455793
vt 0.185270 0.438116
vt 0.185270 0.455793
vt 0.004930 0.393909
vt 0.185270 0.376232
vt 0.185270 0.393909
vt 0.004930 0.332025
vt 0.185270 0.314349
vt 0.004930 0.270141
vt 0.185270 0.252465
vt 0.185270 0.270141
vt 0.004930 0.208257
vt 0.185270 0.190581
vt 0.185270 0.208257
vt 0.004930 0.146374
vt 0.185270 0.128697
vt 0.185270 0.146374
vt 0.004930 0.084490
vt 0.185270 0.066813
vt 0.004930 0.022606
vt 0.185270 0.004930
vt 0.185270 0.022606
vt 0.004930 0.314349
vt 0.387612 0.116514
vt 0.397174 0.136439
vt 0.384164 0.133851
vt 0.004930 0.035871
vt 0.240673 0.253326
vt 0.248000 0.232476
vt 0.255370 0.243505
vt 0.004930 0.840361
vt 0.217144 0.043103
vt 0.228173 0.050473
vt 0.004930 0.561884
vt 0.306714 0.017940
vt 0.326639 0.008378
vt 0.324051 0.021389
vt 0.377399 0.365534
vt 0.378608 0.387602
vt 0.367579 0.380232
vt 0.004930 0.283407
vt 0.367579 0.265825
vt 0.388429 0.273153
vt 0.377399 0.280522
vt 0.233303 0.188409
vt 0.240673 0.177379
vt 0.004930 0.809419
vt 0.255370 0.402552
vt 0.233303 0.403761
vt 0.240673 0.392731
vt 0.004930 0.530942
vt 0.004930 0.252465
vt 0.377399 0.150182
vt 0.378608 0.172249
vt 0.367579 0.164880
vt 0.218353 0.280523
vt 0.217144 0.258455
vt 0.228173 0.265825
vt 0.004930 0.778477
vt 0.004930 0.500000
vt 0.340382 0.028153
vt 0.362449 0.026944
vt 0.355079 0.037974
vt 0.004930 0.221523
vt 0.340382 0.243505
vt 0.362449 0.242296
vt 0.355079 0.253326
vt 0.228173 0.164880
vt 0.207323 0.157552
vt 0.218353 0.150182
vt 0.004930 0.747535
vt 0.271701 0.409316
vt 0.286450 0.425775
vt 0.269113 0.422327
vt 0.004930 0.469058
vt 0.004930 0.190581
vt 0.355079 0.177379
vt 0.347752 0.198229
vt 0.340382 0.187199
vt 0.211588 0.296853
vt 0.195129 0.311602
vt 0.198578 0.294266
vt 0.004930 0.716593
vt 0.004930 0.438116
vt 0.367579 0.050473
vt 0.388429 0.057800
vt 0.004930 0.995070
vt 0.004930 0.159639
vt 0.324051 0.236741
vt 0.309302 0.220282
vt 0.326639 0.223730
vt 0.004930 0.964129
vt 0.208140 0.116514
vt 0.198578 0.136439
vt 0.195129 0.119102
vt 0.004930 0.685651
vt 0.240673 0.037974
vt 0.248000 0.017123
vt 0.255370 0.028153
vt 0.324051 0.409316
vt 0.309302 0.425775
vt 0.004930 0.407174
vt 0.384164 0.349204
vt 0.400623 0.334455
vt 0.397174 0.351792
vt 0.004930 0.128697
vt 0.306714 0.197412
vt 0.326639 0.206974
vt 0.309302 0.210423
vt 0.004930 0.933187
vt 0.211588 0.349204
vt 0.195129 0.334455
vt 0.208140 0.331867
vt 0.004930 0.654709
vt 0.375470 0.560326
vt 0.195129 0.564348
vt 0.195129 0.560326
vt 0.375470 0.556303
vt 0.195129 0.556303
vt 0.375470 0.552281
vt 0.195129 0.552281
vt 0.375470 0.548259
vt 0.195129 0.548259
vt 0.195129 0.544237
vt 0.375470 0.544237
vt 0.195129 0.540214
vt 0.375470 0.540214
vt 0.195129 0.536192
vt 0.375470 0.536192
vt 0.195129 0.532170
vt 0.375470 0.532170
vt 0.195129 0.528147
vt 0.375470 0.528147
vt 0.195129 0.524125
vt 0.375470 0.524125
vt 0.195129 0.520103
vt 0.375470 0.520103
vt 0.195129 0.516080
vt 0.375470 0.516080
vt 0.195129 0.512058
vt 0.375470 0.512058
vt 0.195129 0.508036
vt 0.375470 0.508036
vt 0.195129 0.504013
vt 0.375470 0.504013
vt 0.195129 0.499991
vt 0.375470 0.499991
vt 0.195129 0.495969
vt 0.375470 0.495969
vt 0.195129 0.491947
vt 0.375470 0.491947
vt 0.195129 0.487924
vt 0.375470 0.487924
vt 0.195129 0.483902
vt 0.375470 0.483902
vt 0.375470 0.479880
vt 0.195129 0.479880
vt 0.375470 0.475857
vt 0.195129 0.475857
vt 0.375470 0.471835
vt 0.195129 0.471835
vt 0.375470 0.467813
vt 0.195129 0.467813
vt 0.375470 0.463790
vt 0.195129 0.463790
vt 0.375470 0.459768
vt 0.195129 0.459768
vt 0.375470 0.455746
vt 0.195129 0.455746
vt 0.375470 0.451723
vt 0.195129 0.451723
vt 0.375470 0.447701
vt 0.195129 0.447701
vt 0.375470 0.443679
vt 0.195129 0.443679
vt 0.375470 0.439656
vt 0.195129 0.439657
vt 0.375470 0.435634
vt 0.195129 0.435634
vt 0.217144 0.387602
vt 0.286450 0.210423
vt 0.397174 0.294265
vt 0.362449 0.403761
vt 0.271701 0.021389
vt 0.195129 0.096250
vt 0.269113 0.223730
vt 0.384164 0.081501
vt 0.289038 0.412765
vt 0.295865 0.343448
vt 0.299887 0.343448
vt 0.318296 0.325040
vt 0.387612 0.331867
vt 0.317511 0.328985
vt 0.303832 0.342663
vt 0.307548 0.341124
vt 0.315972 0.332701
vt 0.208140 0.314190
vt 0.306714 0.233292
vt 0.318296 0.321017
vt 0.291920 0.342663
vt 0.317511 0.317072
vt 0.315972 0.313356
vt 0.288204 0.341124
vt 0.313737 0.310012
vt 0.284859 0.338889
vt 0.282015 0.336045
vt 0.310893 0.307168
vt 0.307548 0.304933
vt 0.279780 0.332701
vt 0.278241 0.328985
vt 0.303832 0.303394
vt 0.299887 0.302609
vt 0.277456 0.325040
vt 0.277456 0.321017
vt 0.295865 0.302609
vt 0.291920 0.303394
vt 0.278241 0.317072
vt 0.288204 0.304933
vt 0.284859 0.307168
vt 0.279780 0.098004
vt 0.324051 0.193964
vt 0.288204 0.125772
vt 0.291920 0.127311
vt 0.282015 0.094659
vt 0.295865 0.128096
vt 0.284859 0.091815
vt 0.288204 0.089581
vt 0.299887 0.128096
vt 0.303832 0.127311
vt 0.291920 0.088041
vt 0.295865 0.087257
vt 0.307548 0.125772
vt 0.310893 0.123537
vt 0.299887 0.087257
vt 0.313737 0.120693
vt 0.303832 0.088041
vt 0.307548 0.089581
vt 0.315972 0.117348
vt 0.317511 0.113632
vt 0.310893 0.091815
vt 0.313737 0.094659
vt 0.318296 0.109687
vt 0.318296 0.105665
vt 0.284859 0.123537
vt 0.211588 0.133851
vt 0.278241 0.101720
vt 0.277456 0.105665
vt 0.282015 0.120693
vt 0.279780 0.117348
vt 0.277456 0.109687
vt 0.004930 0.004930
vt 0.400623 0.119102
vt 0.233303 0.242296
vt 0.207323 0.057800
vt 0.309302 0.004930
vt 0.388429 0.372904
vt 0.378608 0.258455
vt 0.248000 0.198229
vt 0.248000 0.413581
vt 0.388429 0.157552
vt 0.207323 0.273153
vt 0.347752 0.017123
vt 0.347752 0.232476
vt 0.217144 0.172249
vt 0.362449 0.188409
vt 0.378608 0.043103
vt 0.185270 0.995070
vt 0.233303 0.026944
vt 0.326639 0.422327
vt 0.198578 0.351792
vt 0.375470 0.564348
s 0
usemtl マテリアル
f 2/1/1 3/2/1 1/3/1
f 28/4/2 92/5/2 27/6/2
f 6/7/3 7/8/3 5/9/3
f 46/10/4 107/11/4 44/12/4
f 10/13/5 11/14/5 9/15/5
f 9/15/6 74/16/6 10/13/6
f 14/17/7 15/18/7 13/19/7
f 43/20/8 109/21/8 45/22/8
f 18/23/9 19/24/9 17/25/9
f 61/26/2 126/27/2 62/28/2
f 22/29/10 23/30/10 21/31/10
f 10/32/4 71/33/4 8/34/4
f 26/35/11 27/6/11 25/36/11
f 44/37/12 108/38/12 43/39/12
f 30/40/13 31/41/13 29/42/13
f 62/43/4 123/44/4 60/45/4
f 34/46/14 35/47/14 33/48/14
f 9/49/8 72/50/8 73/51/8
f 38/52/15 39/53/15 37/54/15
f 25/36/16 90/55/16 26/35/16
f 42/56/17 43/39/17 41/57/17
f 59/58/8 125/59/8 61/60/8
f 46/61/18 47/62/18 45/63/18
f 8/64/19 72/65/19 7/8/19
f 50/66/20 51/67/20 49/68/20
f 26/69/4 87/70/4 24/71/4
f 54/72/21 55/73/21 53/74/21
f 60/75/22 124/76/22 59/77/22
f 58/78/23 59/77/23 57/79/23
f 25/80/8 88/81/8 89/82/8
f 56/83/4 143/84/4 139/85/4
f 24/71/4 146/86/4 147/87/4
f 62/28/24 63/88/24 61/26/24
f 41/57/19 106/89/19 42/56/19
f 21/90/8 169/91/8 173/92/8
f 47/93/8 63/94/8 182/95/8
f 67/96/25 69/97/25 68/98/25
f 71/99/26 73/100/26 72/65/26
f 75/101/2 77/102/2 76/103/2
f 79/104/27 81/105/27 80/106/27
f 83/107/28 85/108/28 84/109/28
f 87/110/6 89/111/6 88/112/6
f 91/113/12 93/114/12 92/5/12
f 95/115/29 97/116/29 96/117/29
f 99/118/30 101/119/30 100/120/30
f 103/121/16 105/122/16 104/123/16
f 107/124/22 109/125/22 108/38/22
f 111/126/31 113/127/31 112/128/31
f 115/129/32 117/130/32 116/131/32
f 119/132/19 121/133/19 120/134/19
f 123/135/33 125/136/33 124/76/33
f 127/137/34 65/138/34 128/139/34
f 45/63/33 110/140/33 46/61/33
f 27/141/8 93/142/8 29/143/8
f 64/144/31 128/139/31 63/88/31
f 30/145/4 91/146/4 28/147/4
f 12/148/33 76/103/33 11/14/33
f 63/94/8 65/149/8 1/150/8
f 29/42/22 94/151/22 30/40/22
f 11/152/8 77/153/8 13/154/8
f 2/155/4 127/156/4 64/157/4
f 48/158/29 112/128/29 47/62/29
f 14/159/4 75/160/4 12/161/4
f 47/93/8 113/162/8 49/163/8
f 13/19/12 78/164/12 14/17/12
f 50/165/4 111/166/4 48/167/4
f 32/168/27 96/117/27 31/41/27
f 49/68/34 114/169/34 50/66/34
f 31/170/8 97/171/8 33/172/8
f 34/173/4 95/174/4 32/175/4
f 16/176/34 80/106/34 15/18/34
f 33/48/31 98/177/31 34/46/31
f 15/178/8 81/179/8 17/180/8
f 52/181/30 116/131/30 51/67/30
f 18/182/4 79/183/4 16/184/4
f 51/185/8 117/186/8 53/187/8
f 17/25/29 82/188/29 18/23/29
f 52/189/4 118/190/4 115/191/4
f 36/192/28 100/120/28 35/47/28
f 53/74/25 118/193/25 54/72/25
f 35/194/8 101/195/8 37/196/8
f 36/197/4 102/198/4 99/199/4
f 20/200/25 84/109/25 19/24/25
f 37/54/32 102/201/32 38/52/32
f 19/202/8 85/203/8 21/90/8
f 1/3/27 66/204/27 2/1/27
f 56/205/16 120/134/16 55/73/16
f 20/206/4 86/207/4 83/208/4
f 4/209/32 68/98/32 3/2/32
f 57/210/8 120/211/8 121/212/8
f 21/31/30 86/213/30 22/29/30
f 3/214/8 69/215/8 5/216/8
f 58/217/4 119/218/4 56/83/4
f 40/219/6 104/123/6 39/53/6
f 4/220/4 70/221/4 67/222/4
f 57/79/26 122/223/26 58/78/26
f 41/224/8 104/225/8 105/226/8
f 5/9/28 70/227/28 6/7/28
f 42/228/4 103/229/4 40/230/4
f 24/231/26 88/112/26 23/30/26
f 140/232/14 163/233/14 162/234/14
f 150/235/30 162/234/30 167/236/30
f 148/237/15 167/236/15 166/238/15
f 160/239/16 166/238/16 176/240/16
f 160/239/17 170/241/17 153/242/17
f 153/242/22 175/243/22 157/244/22
f 157/244/18 172/245/18 156/246/18
f 156/246/31 171/247/31 154/248/31
f 154/248/20 174/249/20 155/250/20
f 155/250/32 173/251/32 159/252/32
f 159/252/21 169/253/21 152/254/21
f 152/254/19 168/255/19 158/256/19
f 158/256/23 164/257/23 149/258/23
f 149/258/33 165/259/33 151/260/33
f 151/260/24 188/261/24 146/262/24
f 146/262/34 189/263/34 147/264/34
f 147/264/1 187/265/1 145/266/1
f 145/266/25 190/267/25 142/268/25
f 142/268/3 185/269/3 137/270/3
f 137/270/26 183/271/26 134/272/26
f 132/273/5 183/271/5 181/274/5
f 135/275/2 181/274/2 178/276/2
f 131/277/7 178/276/7 179/278/7
f 129/279/27 179/278/27 177/280/27
f 130/281/9 177/280/9 180/282/9
f 136/283/28 180/282/28 184/284/28
f 133/285/10 184/284/10 182/286/10
f 144/287/6 182/286/6 192/288/6
f 138/289/11 192/288/11 186/290/11
f 143/291/12 186/290/12 191/292/12
f 139/293/13 191/292/13 161/294/13
f 141/295/29 161/294/29 163/296/29
f 2/1/1 4/209/1 3/2/1
f 28/4/2 91/113/2 92/5/2
f 6/7/3 8/64/3 7/8/3
f 46/10/4 110/297/4 107/11/4
f 10/13/5 12/148/5 11/14/5
f 9/15/6 73/100/6 74/16/6
f 14/17/7 16/176/7 15/18/7
f 43/20/8 108/298/8 109/21/8
f 18/23/9 20/200/9 19/24/9
f 61/26/2 125/136/2 126/27/2
f 22/29/10 24/231/10 23/30/10
f 10/32/4 74/299/4 71/33/4
f 26/35/11 28/4/11 27/6/11
f 44/37/12 107/124/12 108/38/12
f 30/40/13 32/168/13 31/41/13
f 62/43/4 126/300/4 123/44/4
f 34/46/14 36/192/14 35/47/14
f 9/49/8 7/301/8 72/50/8
f 38/52/15 40/219/15 39/53/15
f 25/36/16 89/111/16 90/55/16
f 42/56/17 44/37/17 43/39/17
f 59/58/8 124/302/8 125/59/8
f 46/61/18 48/158/18 47/62/18
f 8/64/19 71/99/19 72/65/19
f 50/66/20 52/181/20 51/67/20
f 26/69/4 90/303/4 87/70/4
f 54/72/21 56/205/21 55/73/21
f 60/75/22 123/135/22 124/76/22
f 58/78/23 60/75/23 59/77/23
f 25/80/8 23/304/8 88/81/8
f 64/157/4 62/43/4 60/45/4
f 60/45/4 58/217/4 56/83/4
f 56/83/4 54/305/4 136/306/4
f 56/83/4 136/306/4 133/307/4
f 64/157/4 60/45/4 56/83/4
f 4/220/4 2/155/4 64/157/4
f 150/308/4 6/309/4 4/220/4
f 140/310/4 150/308/4 4/220/4
f 4/220/4 64/157/4 56/83/4
f 56/83/4 133/307/4 144/311/4
f 56/83/4 144/311/4 138/312/4
f 140/310/4 4/220/4 56/83/4
f 141/313/4 140/310/4 56/83/4
f 56/83/4 138/312/4 143/84/4
f 139/85/4 141/313/4 56/83/4
f 48/167/4 46/10/4 44/12/4
f 44/12/4 42/228/4 40/230/4
f 40/230/4 38/314/4 36/197/4
f 36/197/4 34/173/4 32/175/4
f 32/175/4 30/145/4 28/147/4
f 28/147/4 26/69/4 24/71/4
f 24/71/4 22/315/4 20/206/4
f 20/206/4 18/182/4 16/184/4
f 16/184/4 14/159/4 12/161/4
f 12/161/4 10/32/4 8/34/4
f 8/34/4 6/309/4 150/308/4
f 8/34/4 150/308/4 148/316/4
f 16/184/4 12/161/4 8/34/4
f 24/71/4 20/206/4 16/184/4
f 32/175/4 28/147/4 24/71/4
f 40/230/4 36/197/4 32/175/4
f 48/167/4 44/12/4 40/230/4
f 52/189/4 50/165/4 48/167/4
f 136/306/4 54/305/4 52/189/4
f 130/317/4 136/306/4 52/189/4
f 52/189/4 48/167/4 40/230/4
f 40/230/4 32/175/4 24/71/4
f 24/71/4 16/184/4 8/34/4
f 8/34/4 148/316/4 160/318/4
f 8/34/4 160/318/4 153/319/4
f 130/317/4 52/189/4 40/230/4
f 129/320/4 130/317/4 40/230/4
f 24/71/4 8/34/4 153/319/4
f 24/71/4 153/319/4 157/321/4
f 131/322/4 129/320/4 40/230/4
f 135/323/4 131/322/4 40/230/4
f 24/71/4 157/321/4 156/324/4
f 24/71/4 156/324/4 154/325/4
f 132/326/4 135/323/4 40/230/4
f 134/327/4 132/326/4 40/230/4
f 24/71/4 154/325/4 155/328/4
f 24/71/4 155/328/4 159/329/4
f 137/330/4 134/327/4 40/230/4
f 142/331/4 137/330/4 40/230/4
f 24/71/4 159/329/4 152/332/4
f 24/71/4 152/332/4 158/333/4
f 142/331/4 40/230/4 24/71/4
f 145/334/4 142/331/4 24/71/4
f 24/71/4 158/333/4 149/335/4
f 24/71/4 149/335/4 151/336/4
f 147/87/4 145/334/4 24/71/4
f 24/71/4 151/336/4 146/86/4
f 62/28/24 64/144/24 63/88/24
f 41/57/19 105/122/19 106/89/19
f 161/337/8 63/94/8 1/150/8
f 1/150/8 3/214/8 5/216/8
f 5/216/8 7/301/8 9/49/8
f 9/49/8 11/152/8 13/154/8
f 13/154/8 15/178/8 17/180/8
f 17/180/8 19/202/8 21/90/8
f 21/90/8 23/304/8 25/80/8
f 25/80/8 27/141/8 29/143/8
f 29/143/8 31/170/8 33/172/8
f 33/172/8 35/194/8 37/196/8
f 37/196/8 39/338/8 41/224/8
f 41/224/8 43/20/8 45/22/8
f 45/22/8 47/93/8 179/339/8
f 45/22/8 179/339/8 178/340/8
f 37/196/8 41/224/8 45/22/8
f 29/143/8 33/172/8 37/196/8
f 21/90/8 25/80/8 29/143/8
f 13/154/8 17/180/8 21/90/8
f 5/216/8 9/49/8 13/154/8
f 161/337/8 1/150/8 5/216/8
f 163/341/8 161/337/8 5/216/8
f 5/216/8 13/154/8 21/90/8
f 21/90/8 29/143/8 37/196/8
f 37/196/8 45/22/8 178/340/8
f 37/196/8 178/340/8 181/342/8
f 162/343/8 163/341/8 5/216/8
f 167/344/8 162/343/8 5/216/8
f 37/196/8 181/342/8 183/345/8
f 37/196/8 183/345/8 185/346/8
f 166/347/8 167/344/8 5/216/8
f 176/348/8 166/347/8 5/216/8
f 37/196/8 185/346/8 190/349/8
f 37/196/8 190/349/8 187/350/8
f 176/348/8 5/216/8 21/90/8
f 170/351/8 176/348/8 21/90/8
f 21/90/8 37/196/8 187/350/8
f 21/90/8 187/350/8 189/352/8
f 175/353/8 170/351/8 21/90/8
f 172/354/8 175/353/8 21/90/8
f 21/90/8 189/352/8 188/355/8
f 21/90/8 188/355/8 165/356/8
f 171/357/8 172/354/8 21/90/8
f 174/358/8 171/357/8 21/90/8
f 21/90/8 165/356/8 164/359/8
f 21/90/8 164/359/8 168/360/8
f 173/92/8 174/358/8 21/90/8
f 21/90/8 168/360/8 169/91/8
f 177/361/8 179/339/8 47/93/8
f 47/93/8 49/163/8 51/185/8
f 51/185/8 53/187/8 55/362/8
f 55/362/8 57/210/8 59/58/8
f 59/58/8 61/60/8 63/94/8
f 63/94/8 161/337/8 191/363/8
f 63/94/8 191/363/8 186/364/8
f 55/362/8 59/58/8 63/94/8
f 47/93/8 51/185/8 55/362/8
f 180/365/8 177/361/8 47/93/8
f 184/366/8 180/365/8 47/93/8
f 47/93/8 55/362/8 63/94/8
f 63/94/8 186/364/8 192/367/8
f 182/95/8 184/366/8 47/93/8
f 63/94/8 192/367/8 182/95/8
f 67/96/25 70/227/25 69/97/25
f 71/99/26 74/16/26 73/100/26
f 75/101/2 78/164/2 77/102/2
f 79/104/27 82/188/27 81/105/27
f 83/107/28 86/213/28 85/108/28
f 87/110/6 90/55/6 89/111/6
f 91/113/12 94/151/12 93/114/12
f 95/115/29 98/177/29 97/116/29
f 99/118/30 102/201/30 101/119/30
f 103/121/16 106/89/16 105/122/16
f 107/124/22 110/140/22 109/125/22
f 111/126/31 114/169/31 113/127/31
f 115/129/32 118/193/32 117/130/32
f 119/132/19 122/223/19 121/133/19
f 123/135/33 126/27/33 125/136/33
f 127/137/34 66/368/34 65/138/34
f 45/63/33 109/125/33 110/140/33
f 27/141/8 92/369/8 93/142/8
f 64/144/31 127/137/31 128/139/31
f 30/145/4 94/370/4 91/146/4
f 12/148/33 75/101/33 76/103/33
f 63/94/8 128/371/8 65/149/8
f 29/42/22 93/114/22 94/151/22
f 11/152/8 76/372/8 77/153/8
f 2/155/4 66/373/4 127/156/4
f 48/158/29 111/126/29 112/128/29
f 14/159/4 78/374/4 75/160/4
f 47/93/8 112/375/8 113/162/8
f 13/19/12 77/102/12 78/164/12
f 50/165/4 114/376/4 111/166/4
f 32/168/27 95/115/27 96/117/27
f 49/68/34 113/127/34 114/169/34
f 31/170/8 96/377/8 97/171/8
f 34/173/4 98/378/4 95/174/4
f 16/176/34 79/104/34 80/106/34
f 33/48/31 97/116/31 98/177/31
f 15/178/8 80/379/8 81/179/8
f 52/181/30 115/129/30 116/131/30
f 18/182/4 82/380/4 79/183/4
f 51/185/8 116/381/8 117/186/8
f 17/25/29 81/105/29 82/188/29
f 52/189/4 54/305/4 118/190/4
f 36/192/28 99/118/28 100/120/28
f 53/74/25 117/130/25 118/193/25
f 35/194/8 100/382/8 101/195/8
f 36/197/4 38/314/4 102/198/4
f 20/200/25 83/107/25 84/109/25
f 37/54/32 101/119/32 102/201/32
f 19/202/8 84/383/8 85/203/8
f 1/3/27 65/384/27 66/204/27
f 56/205/16 119/132/16 120/134/16
f 20/206/4 22/315/4 86/207/4
f 4/209/32 67/96/32 68/98/32
f 57/210/8 55/362/8 120/211/8
f 21/31/30 85/108/30 86/213/30
f 3/214/8 68/385/8 69/215/8
f 58/217/4 122/386/4 119/218/4
f 40/219/6 103/121/6 104/123/6
f 4/220/4 6/309/4 70/221/4
f 57/79/26 121/133/26 122/223/26
f 41/224/8 39/338/8 104/225/8
f 5/9/28 69/97/28 70/227/28
f 42/228/4 106/387/4 103/229/4
f 24/231/26 87/110/26 88/112/26
f 140/232/14 141/388/14 163/233/14
f 150/235/30 140/232/30 162/234/30
f 148/237/15 150/235/15 167/236/15
f 160/239/16 148/237/16 166/238/16
f 160/239/17 176/240/17 170/241/17
f 153/242/22 170/241/22 175/243/22
f 157/244/18 175/243/18 172/245/18
f 156/246/31 172/245/31 171/247/31
f 154/248/20 171/247/20 174/249/20
f 155/250/32 174/249/32 173/251/32
f 159/252/21 173/251/21 169/253/21
f 152/254/19 169/253/19 168/255/19
f 158/256/23 168/255/23 164/257/23
f 149/258/33 164/257/33 165/259/33
f 151/260/24 165/259/24 188/261/24
f 146/262/34 188/261/34 189/263/34
f 147/264/1 189/263/1 187/265/1
f 145/266/25 187/265/25 190/267/25
f 142/268/3 190/267/3 185/269/3
f 137/270/26 185/269/26 183/271/26
f 132/273/5 134/272/5 183/271/5
f 135/275/2 132/273/2 181/274/2
f 131/277/7 135/275/7 178/276/7
f 129/279/27 131/277/27 179/278/27
f 130/281/9 129/279/9 177/280/9
f 136/283/28 130/281/28 180/282/28
f 133/285/10 136/283/10 184/284/10
f 144/287/6 133/285/6 182/286/6
f 138/289/11 144/287/11 192/288/11
f 143/291/12 138/289/12 186/290/12
f 139/293/13 143/291/13 191/292/13
f 141/295/29 139/293/29 161/294/29
