# Blender 4.1.1
# www.blender.org
mtllib Hammer.mtl
o 円柱.005
v -0.053993 18.097975 4.776145
v -0.053993 18.097975 3.776145
v -0.190556 18.084524 4.776145
v -0.190556 18.084524 3.776145
v -0.321872 18.044689 4.776145
v -0.321872 18.044689 3.776145
v -0.442892 17.980003 4.776145
v -0.442892 17.980003 3.776145
v -0.548968 17.892948 4.776145
v -0.548968 17.892948 3.776145
v -0.636022 17.786873 4.776145
v -0.636022 17.786873 3.776145
v -0.700709 17.665852 4.776145
v -0.700709 17.665852 3.776145
v -0.740543 17.534536 4.776145
v -0.740543 17.534536 3.776145
v -0.753993 17.397974 4.776145
v -0.753993 17.397974 3.776145
v -0.740543 17.261412 4.776145
v -0.740543 17.261412 3.776145
v -0.700709 17.130096 4.776145
v -0.700709 17.130096 3.776145
v -0.636022 17.009075 4.776145
v -0.636022 17.009075 3.776145
v -0.548968 16.903000 4.776145
v -0.548968 16.903000 3.776145
v -0.442892 16.815945 4.776145
v -0.442892 16.815945 3.776145
v -0.321872 16.751259 4.776145
v -0.321872 16.751259 3.776145
v -0.190556 16.711424 4.776145
v -0.190556 16.711424 3.776145
v -0.053993 16.697973 4.776145
v -0.053993 16.697973 3.776145
v 0.082570 16.711424 4.776145
v 0.082570 16.711424 3.776145
v 0.213885 16.751259 4.776145
v 0.213885 16.751259 3.776145
v 0.334906 16.815945 4.776145
v 0.334906 16.815945 3.776145
v 0.440982 16.903000 4.776145
v 0.440982 16.903000 3.776145
v 0.528036 17.009075 4.776145
v 0.528036 17.009075 3.776145
v 0.592722 17.130096 4.776145
v 0.592722 17.130096 3.776145
v 0.632556 17.261412 4.776145
v 0.632556 17.261412 3.776145
v 0.646007 17.397974 4.776145
v 0.646007 17.397974 3.776145
v 0.632556 17.534536 4.776145
v 0.632556 17.534536 3.776145
v 0.592722 17.665852 4.776145
v 0.592722 17.665852 3.776145
v 0.528036 17.786873 4.776145
v 0.528036 17.786873 3.776145
v 0.440982 17.892948 4.776145
v 0.440982 17.892948 3.776145
v 0.334906 17.980003 4.776145
v 0.334906 17.980003 3.776145
v 0.213885 18.044689 4.776145
v 0.213885 18.044689 3.776145
v 0.082570 18.084524 4.776145
v 0.082570 18.084524 3.776145
v -0.000000 4.000001 0.300000
v -0.000000 14.000000 0.300000
v -0.058527 4.000001 0.294236
v -0.058527 14.000000 0.294236
v -0.114805 4.000001 0.277164
v -0.114805 14.000000 0.277164
v -0.166671 4.000001 0.249441
v -0.166671 14.000000 0.249441
v -0.212132 4.000001 0.212132
v -0.212132 14.000000 0.212132
v -0.249441 4.000001 0.166671
v -0.249441 14.000000 0.166671
v -0.277164 4.000001 0.114805
v -0.277164 14.000000 0.114805
v -0.294236 4.000001 0.058527
v -0.294236 14.000000 0.058527
v -0.300000 4.000001 0.000000
v -0.300000 14.000000 0.000000
v -0.294236 4.000001 -0.058527
v -0.294236 14.000000 -0.058527
v -0.277164 4.000001 -0.114805
v -0.277164 14.000000 -0.114805
v -0.249441 4.000001 -0.166671
v -0.249441 14.000000 -0.166671
v -0.212132 4.000001 -0.212132
v -0.212132 14.000000 -0.212132
v -0.166671 4.000001 -0.249441
v -0.166671 14.000000 -0.249441
v -0.114805 4.000001 -0.277164
v -0.114805 14.000000 -0.277164
v -0.058527 4.000001 -0.294235
v -0.058527 14.000000 -0.294235
v -0.000000 4.000001 -0.300000
v -0.000000 14.000000 -0.300000
v 0.058527 4.000001 -0.294235
v 0.058527 14.000000 -0.294235
v 0.114805 4.000001 -0.277164
v 0.114805 14.000000 -0.277164
v 0.166671 4.000001 -0.249441
v 0.166671 14.000000 -0.249441
v 0.212132 4.000001 -0.212132
v 0.212132 14.000000 -0.212132
v 0.249441 4.000001 -0.166671
v 0.249441 14.000000 -0.166671
v 0.277164 4.000001 -0.114805
v 0.277164 14.000000 -0.114805
v 0.294236 4.000001 -0.058527
v 0.294236 14.000000 -0.058527
v 0.300000 4.000001 0.000000
v 0.300000 14.000000 0.000000
v 0.294236 4.000001 0.058527
v 0.294236 14.000000 0.058527
v 0.277164 4.000001 0.114805
v 0.277164 14.000000 0.114805
v 0.249441 4.000001 0.166671
v 0.249441 14.000000 0.166671
v 0.212132 4.000001 0.212132
v 0.212132 14.000000 0.212132
v 0.166671 4.000001 0.249441
v 0.166671 14.000000 0.249441
v 0.114805 4.000001 0.277164
v 0.114805 14.000000 0.277164
v 0.058527 4.000001 0.294236
v 0.058527 14.000000 0.294236
v -0.000000 19.000000 4.000000
v -0.000000 18.999998 -4.000000
v -0.585271 18.942356 4.000000
v -0.585271 18.942354 -4.000000
v -1.148050 18.771637 4.000000
v -1.148050 18.771637 -4.000000
v -1.666711 18.494408 4.000000
v -1.666711 18.494408 -4.000000
v -2.121320 18.121319 4.000000
v -2.121320 18.121319 -4.000000
v -2.494409 17.666710 4.000000
v -2.494409 17.666710 -4.000000
v -2.771638 17.148050 4.000000
v -2.771638 17.148050 -4.000000
v -2.942356 16.585270 4.000000
v -2.942356 16.585270 -4.000000
v -3.000000 15.999999 4.000000
v -3.000000 15.999999 -4.000000
v -2.942356 15.414728 4.000000
v -2.942356 15.414728 -4.000000
v -2.771638 14.851950 4.000000
v -2.771638 14.851949 -4.000000
v -2.494409 14.333288 4.000000
v -2.494409 14.333288 -4.000000
v -2.121320 13.878679 4.000000
v -2.121320 13.878679 -4.000000
v -1.666711 13.505590 4.000000
v -1.666711 13.505590 -4.000000
v -1.148050 13.228361 4.000000
v -1.148050 13.228361 -4.000000
v -0.585271 13.057644 4.000000
v -0.585271 13.057644 -4.000000
v -0.000000 13.000000 4.000000
v -0.000000 12.999999 -4.000000
v 0.585271 13.057644 4.000000
v 0.585271 13.057644 -4.000000
v 1.148050 13.228361 4.000000
v 1.148050 13.228361 -4.000000
v 1.666711 13.505590 4.000000
v 1.666711 13.505590 -4.000000
v 2.121320 13.878679 4.000000
v 2.121320 13.878679 -4.000000
v 2.494409 14.333288 4.000000
v 2.494409 14.333288 -4.000000
v 2.771638 14.851950 4.000000
v 2.771638 14.851949 -4.000000
v 2.942356 15.414728 4.000000
v 2.942356 15.414728 -4.000000
v 3.000000 15.999999 4.000000
v 3.000000 15.999999 -4.000000
v 2.942356 16.585270 4.000000
v 2.942356 16.585270 -4.000000
v 2.771638 17.148050 4.000000
v 2.771638 17.148050 -4.000000
v 2.494409 17.666710 4.000000
v 2.494409 17.666710 -4.000000
v 2.121320 18.121319 4.000000
v 2.121320 18.121319 -4.000000
v 1.666711 18.494408 4.000000
v 1.666711 18.494408 -4.000000
v 1.148050 18.771637 4.000000
v 1.148050 18.771637 -4.000000
v 0.585271 18.942356 4.000000
v 0.585271 18.942354 -4.000000
v -0.000000 19.499998 6.679514
v -0.000000 19.499998 -0.320486
v -0.682816 19.432747 6.679514
v -0.682816 19.432747 -0.320486
v -1.339392 19.233578 6.679514
v -1.339392 19.233578 -0.320486
v -1.944495 18.910143 6.679514
v -1.944495 18.910143 -0.320486
v -2.474873 18.474873 6.679514
v -2.474873 18.474873 -0.320486
v -2.910143 17.944494 6.679514
v -2.910143 17.944494 -0.320486
v -3.233578 17.339392 6.679514
v -3.233578 17.339392 -0.320486
v -3.432748 16.682816 6.679514
v -3.432748 16.682816 -0.320486
v -3.500000 15.999999 6.679514
v -3.500000 15.999999 -0.320486
v -3.432748 15.317183 6.679514
v -3.432748 15.317183 -0.320486
v -3.233578 14.660607 6.679514
v -3.233578 14.660607 -0.320486
v -2.910143 14.055504 6.679514
v -2.910143 14.055504 -0.320486
v -2.474873 13.525126 6.679514
v -2.474873 13.525126 -0.320486
v -1.944495 13.089856 6.679514
v -1.944495 13.089856 -0.320486
v -1.339392 12.766421 6.679514
v -1.339392 12.766421 -0.320486
v -0.682816 12.567251 6.679514
v -0.682816 12.567251 -0.320486
v -0.000000 12.500000 6.679514
v -0.000000 12.500000 -0.320486
v 0.682816 12.567251 6.679514
v 0.682816 12.567251 -0.320486
v 1.339392 12.766421 6.679514
v 1.339392 12.766421 -0.320486
v 1.944496 13.089856 6.679514
v 1.944496 13.089856 -0.320486
v 2.474873 13.525126 6.679514
v 2.474873 13.525126 -0.320486
v 2.910143 14.055504 6.679514
v 2.910143 14.055504 -0.320486
v 3.233578 14.660607 6.679514
v 3.233578 14.660607 -0.320486
v 3.432748 15.317183 6.679514
v 3.432748 15.317183 -0.320486
v 3.500000 15.999999 6.679514
v 3.500000 15.999999 -0.320486
v 3.432748 16.682816 6.679514
v 3.432748 16.682816 -0.320486
v 3.233578 17.339392 6.679514
v 3.233578 17.339392 -0.320486
v 2.910143 17.944494 6.679514
v 2.910143 17.944494 -0.320486
v 2.474873 18.474873 6.679514
v 2.474873 18.474873 -0.320486
v 1.944496 18.910143 6.679514
v 1.944496 18.910143 -0.320486
v 1.339392 19.233578 6.679514
v 1.339392 19.233578 -0.320486
v 0.682816 19.432747 6.679514
v 0.682816 19.432747 -0.320486
v 2.494409 17.666710 -0.320486
v 1.666711 18.494408 -0.320486
v 2.121320 18.121319 -0.320486
v 0.585271 18.942354 -0.320486
v -0.585271 18.942354 -0.320486
v -0.000000 18.999998 -0.320486
v 1.148050 18.771637 -0.320486
v 3.000000 15.999999 -0.320486
v 2.942356 16.585270 -0.320486
v 2.942356 15.414728 -0.320486
v 2.494409 14.333288 -0.320486
v 1.666711 13.505590 -0.320486
v 2.121320 13.878679 -0.320486
v 2.771638 14.851949 -0.320486
v 0.585271 13.057644 -0.320486
v -0.585271 13.057644 -0.320486
v -0.000000 13.000000 -0.320486
v -1.666711 13.505590 -0.320486
v -2.494409 14.333288 -0.320486
v -2.121320 13.878679 -0.320486
v -1.148050 13.228361 -0.320486
v -1.666711 18.494408 -0.320486
v -2.494409 17.666710 -0.320486
v -2.121320 18.121319 -0.320486
v -3.000000 15.999999 -0.320486
v -2.942356 15.414728 -0.320486
v -2.942356 16.585270 -0.320486
v -2.771638 17.148050 -0.320486
v 2.771638 17.148050 -0.320486
v -1.148050 18.771637 -0.320486
v 1.148050 13.228361 -0.320486
v -2.771638 14.851949 -0.320486
v -0.000000 19.000000 6.679514
v -1.148050 18.771637 6.679514
v -0.585271 18.942354 6.679514
v -2.121320 18.121319 6.679514
v -2.771638 17.148050 6.679514
v -2.494409 17.666710 6.679514
v -1.666711 18.494408 6.679514
v -1.148050 13.228361 6.679514
v -2.121320 13.878679 6.679514
v -1.666711 13.505590 6.679514
v -2.771638 14.851949 6.679514
v -3.000000 15.999999 6.679514
v -2.942356 15.414728 6.679514
v -2.494409 14.333288 6.679514
v 2.771638 14.851949 6.679514
v 2.121320 13.878679 6.679514
v 2.494409 14.333288 6.679514
v 1.148050 13.228361 6.679514
v -0.000000 13.000000 6.679514
v 0.585271 13.057644 6.679514
v 1.666711 13.505590 6.679514
v 3.000000 15.999999 6.679514
v 2.771638 17.148050 6.679514
v 2.942356 16.585270 6.679514
v 2.121320 18.121319 6.679514
v 1.148050 18.771637 6.679514
v 1.666711 18.494408 6.679514
v 2.494409 17.666710 6.679514
v -0.585271 13.057644 6.679514
v -2.942356 16.585270 6.679514
v 2.942356 15.414728 6.679514
v 0.585271 18.942354 6.679514
v 1.233208 15.605062 4.776145
v 1.233208 15.605062 3.776145
v 1.096645 15.591612 4.776145
v 1.096645 15.591612 3.776145
v 0.965330 15.551778 4.776145
v 0.965330 15.551778 3.776145
v 0.844309 15.487091 4.776145
v 0.844309 15.487091 3.776145
v 0.738234 15.400037 4.776145
v 0.738234 15.400037 3.776145
v 0.651180 15.293962 4.776145
v 0.651180 15.293962 3.776145
v 0.586493 15.172941 4.776145
v 0.586493 15.172941 3.776145
v 0.546659 15.041626 4.776145
v 0.546659 15.041626 3.776145
v 0.533209 14.905063 4.776145
v 0.533209 14.905063 3.776145
v 0.546659 14.768499 4.776145
v 0.546659 14.768499 3.776145
v 0.586493 14.637184 4.776145
v 0.586493 14.637184 3.776145
v 0.651180 14.516163 4.776145
v 0.651180 14.516163 3.776145
v 0.738234 14.410088 4.776145
v 0.738234 14.410088 3.776145
v 0.844309 14.323034 4.776145
v 0.844309 14.323034 3.776145
v 0.965330 14.258347 4.776145
v 0.965330 14.258347 3.776145
v 1.096645 14.218513 4.776145
v 1.096645 14.218513 3.776145
v 1.233208 14.205063 4.776145
v 1.233208 14.205063 3.776145
v 1.369772 14.218513 4.776145
v 1.369772 14.218513 3.776145
v 1.501087 14.258347 4.776145
v 1.501087 14.258347 3.776145
v 1.622108 14.323034 4.776145
v 1.622108 14.323034 3.776145
v 1.728183 14.410088 4.776145
v 1.728183 14.410088 3.776145
v 1.815237 14.516163 4.776145
v 1.815237 14.516163 3.776145
v 1.879924 14.637184 4.776145
v 1.879924 14.637184 3.776145
v 1.919758 14.768499 4.776145
v 1.919758 14.768499 3.776145
v 1.933208 14.905063 4.776145
v 1.933208 14.905063 3.776145
v 1.919758 15.041626 4.776145
v 1.919758 15.041626 3.776145
v 1.879924 15.172941 4.776145
v 1.879924 15.172941 3.776145
v 1.815237 15.293962 4.776145
v 1.815237 15.293962 3.776145
v 1.728183 15.400037 4.776145
v 1.728183 15.400037 3.776145
v 1.622108 15.487091 4.776145
v 1.622108 15.487091 3.776145
v 1.501087 15.551778 4.776145
v 1.501087 15.551778 3.776145
v 1.369772 15.591612 4.776145
v 1.369772 15.591612 3.776145
v -1.350142 15.605062 4.776145
v -1.350142 15.605062 3.776145
v -1.486705 15.591612 4.776145
v -1.486705 15.591612 3.776145
v -1.618020 15.551778 4.776145
v -1.618020 15.551778 3.776145
v -1.739041 15.487091 4.776145
v -1.739041 15.487091 3.776145
v -1.845116 15.400037 4.776145
v -1.845116 15.400037 3.776145
v -1.932170 15.293962 4.776145
v -1.932170 15.293962 3.776145
v -1.996857 15.172941 4.776145
v -1.996857 15.172941 3.776145
v -2.036691 15.041626 4.776145
v -2.036691 15.041626 3.776145
v -2.050142 14.905063 4.776145
v -2.050142 14.905063 3.776145
v -2.036691 14.768499 4.776145
v -2.036691 14.768499 3.776145
v -1.996857 14.637184 4.776145
v -1.996857 14.637184 3.776145
v -1.932170 14.516163 4.776145
v -1.932170 14.516163 3.776145
v -1.845116 14.410088 4.776145
v -1.845116 14.410088 3.776145
v -1.739041 14.323034 4.776145
v -1.739041 14.323034 3.776145
v -1.618020 14.258347 4.776145
v -1.618020 14.258347 3.776145
v -1.486705 14.218513 4.776145
v -1.486705 14.218513 3.776145
v -1.350142 14.205063 4.776145
v -1.350142 14.205063 3.776145
v -1.213578 14.218513 4.776145
v -1.213578 14.218513 3.776145
v -1.082263 14.258347 4.776145
v -1.082263 14.258347 3.776145
v -0.961243 14.323034 4.776145
v -0.961243 14.323034 3.776145
v -0.855167 14.410088 4.776145
v -0.855167 14.410088 3.776145
v -0.768113 14.516163 4.776145
v -0.768113 14.516163 3.776145
v -0.703426 14.637184 4.776145
v -0.703426 14.637184 3.776145
v -0.663592 14.768499 4.776145
v -0.663592 14.768499 3.776145
v -0.650142 14.905063 4.776145
v -0.650142 14.905063 3.776145
v -0.663592 15.041626 4.776145
v -0.663592 15.041626 3.776145
v -0.703426 15.172941 4.776145
v -0.703426 15.172941 3.776145
v -0.768113 15.293962 4.776145
v -0.768113 15.293962 3.776145
v -0.855167 15.400037 4.776145
v -0.855167 15.400037 3.776145
v -0.961243 15.487091 4.776145
v -0.961243 15.487091 3.776145
v -1.082263 15.551778 4.776145
v -1.082263 15.551778 3.776145
v -1.213578 15.591612 4.776145
v -1.213578 15.591612 3.776145
vn -0.0980 0.9952 -0.0000
vn -0.2903 0.9569 -0.0000
vn -0.4714 0.8819 -0.0000
vn -0.6344 0.7730 -0.0000
vn -0.7730 0.6344 -0.0000
vn -0.8819 0.4714 -0.0000
vn -0.9569 0.2903 -0.0000
vn -0.9952 0.0980 -0.0000
vn -0.9952 -0.0980 -0.0000
vn -0.9569 -0.2903 -0.0000
vn -0.8819 -0.4714 -0.0000
vn -0.7730 -0.6344 -0.0000
vn -0.6344 -0.7730 -0.0000
vn -0.4714 -0.8819 -0.0000
vn -0.2903 -0.9569 -0.0000
vn -0.0980 -0.9952 -0.0000
vn 0.0980 -0.9952 -0.0000
vn 0.2903 -0.9569 -0.0000
vn 0.4714 -0.8819 -0.0000
vn 0.6344 -0.7730 -0.0000
vn 0.7730 -0.6344 -0.0000
vn 0.8819 -0.4714 -0.0000
vn 0.9569 -0.2903 -0.0000
vn 0.9952 -0.0980 -0.0000
vn 0.9952 0.0980 -0.0000
vn 0.9569 0.2903 -0.0000
vn 0.8819 0.4714 -0.0000
vn 0.7730 0.6344 -0.0000
vn 0.6344 0.7730 -0.0000
vn 0.4714 0.8819 -0.0000
vn -0.0000 -0.0000 -1.0000
vn 0.2903 0.9569 -0.0000
vn 0.0980 0.9952 -0.0000
vn -0.0000 -0.0000 1.0000
vn -0.0980 -0.0000 0.9952
vn -0.2903 -0.0000 0.9569
vn -0.4714 -0.0000 0.8819
vn -0.6344 -0.0000 0.7730
vn -0.7730 -0.0000 0.6344
vn -0.8819 -0.0000 0.4714
vn -0.9569 -0.0000 0.2903
vn -0.9952 -0.0000 0.0980
vn -0.9952 -0.0000 -0.0980
vn -0.9569 -0.0000 -0.2903
vn -0.8819 -0.0000 -0.4714
vn -0.7730 -0.0000 -0.6344
vn -0.6344 -0.0000 -0.7730
vn -0.4714 -0.0000 -0.8819
vn -0.2903 -0.0000 -0.9569
vn -0.0980 -0.0000 -0.9952
vn 0.0980 -0.0000 -0.9952
vn 0.2903 -0.0000 -0.9569
vn 0.4714 -0.0000 -0.8819
vn 0.6344 -0.0000 -0.7730
vn 0.7730 -0.0000 -0.6344
vn 0.8819 -0.0000 -0.4714
vn 0.9569 -0.0000 -0.2903
vn 0.9952 -0.0000 -0.0980
vn 0.9952 -0.0000 0.0980
vn 0.9569 -0.0000 0.2903
vn 0.8819 -0.0000 0.4714
vn 0.7730 -0.0000 0.6344
vn 0.6344 -0.0000 0.7730
vn 0.4714 -0.0000 0.8819
vn -0.0000 1.0000 -0.0000
vn 0.2903 -0.0000 0.9569
vn 0.0980 -0.0000 0.9952
vn -0.0000 -1.0000 -0.0000
vn -0.0000 -1.0000 0.0002
vn -0.0000 -1.0000 -0.0003
vn -0.0000 -1.0000 0.0003
vn -0.0000 -1.0000 -0.0002
vt 0.912567 0.496013
vt 0.909480 0.446616
vt 0.912567 0.446616
vt 0.909480 0.496013
vt 0.906392 0.446616
vt 0.906392 0.496013
vt 0.903305 0.446616
vt 0.903305 0.496013
vt 0.900218 0.446616
vt 0.900218 0.496013
vt 0.897130 0.446616
vt 0.897130 0.496013
vt 0.894043 0.446616
vt 0.894043 0.496013
vt 0.890956 0.446616
vt 0.890956 0.496013
vt 0.887869 0.446616
vt 0.887869 0.496013
vt 0.884781 0.446616
vt 0.884781 0.496013
vt 0.881694 0.446616
vt 0.881694 0.496013
vt 0.878607 0.446616
vt 0.878607 0.496013
vt 0.875519 0.446616
vt 0.875519 0.496013
vt 0.872432 0.446616
vt 0.872432 0.496013
vt 0.869345 0.446616
vt 0.869345 0.496013
vt 0.866258 0.446616
vt 0.866258 0.496013
vt 0.863170 0.446616
vt 0.863170 0.496013
vt 0.860083 0.446616
vt 0.860083 0.496013
vt 0.856996 0.446616
vt 0.856996 0.496013
vt 0.853908 0.446616
vt 0.853908 0.496013
vt 0.850821 0.446616
vt 0.850821 0.496013
vt 0.847734 0.446616
vt 0.847734 0.496013
vt 0.844647 0.446616
vt 0.844647 0.496013
vt 0.841559 0.446616
vt 0.841559 0.496013
vt 0.838472 0.446616
vt 0.838472 0.496013
vt 0.835385 0.446616
vt 0.835385 0.496013
vt 0.832297 0.446616
vt 0.832297 0.496013
vt 0.829210 0.446616
vt 0.829210 0.496013
vt 0.826123 0.446616
vt 0.826123 0.496013
vt 0.823036 0.446616
vt 0.823036 0.496013
vt 0.819948 0.446616
vt 0.680632 0.564014
vt 0.706400 0.574687
vt 0.695727 0.600456
vt 0.819948 0.496013
vt 0.816861 0.446616
vt 0.816861 0.496013
vt 0.813774 0.446616
vt 0.648686 0.201717
vt 0.625495 0.217213
vt 0.640991 0.240404
vt 0.987210 0.262453
vt 0.981272 0.167450
vt 0.987210 0.167450
vt 0.981272 0.262453
vt 0.975334 0.167450
vt 0.975334 0.262453
vt 0.969396 0.167450
vt 0.969396 0.262453
vt 0.963459 0.167450
vt 0.963459 0.262453
vt 0.957521 0.167450
vt 0.957521 0.262453
vt 0.951583 0.167450
vt 0.951583 0.262453
vt 0.945645 0.167450
vt 0.945645 0.262453
vt 0.939708 0.167450
vt 0.939708 0.262453
vt 0.933770 0.167450
vt 0.933770 0.262453
vt 0.927832 0.167450
vt 0.927832 0.262453
vt 0.921895 0.167450
vt 0.921895 0.262453
vt 0.915957 0.167450
vt 0.915957 0.262453
vt 0.910019 0.167450
vt 0.910019 0.262453
vt 0.904081 0.167450
vt 0.904081 0.262453
vt 0.898144 0.167450
vt 0.898144 0.262453
vt 0.892206 0.167450
vt 0.892206 0.262453
vt 0.886268 0.167450
vt 0.886268 0.262453
vt 0.880330 0.167450
vt 0.880330 0.262453
vt 0.874393 0.167450
vt 0.874393 0.262453
vt 0.868455 0.167450
vt 0.868455 0.262453
vt 0.862517 0.167450
vt 0.862517 0.262453
vt 0.856580 0.167450
vt 0.856580 0.262453
vt 0.850642 0.167450
vt 0.850642 0.262453
vt 0.844704 0.167450
vt 0.844704 0.262453
vt 0.838766 0.167450
vt 0.838766 0.262453
vt 0.832829 0.167450
vt 0.832829 0.262453
vt 0.826891 0.167450
vt 0.826891 0.262453
vt 0.820953 0.167450
vt 0.820953 0.262453
vt 0.815015 0.167450
vt 0.815015 0.262453
vt 0.809078 0.167450
vt 0.626654 0.459917
vt 0.639721 0.465330
vt 0.634309 0.478397
vt 0.809078 0.262453
vt 0.803140 0.167450
vt 0.803140 0.262453
vt 0.797202 0.167450
vt 0.709483 0.211342
vt 0.697723 0.219199
vt 0.705581 0.230959
vt 0.592326 0.623627
vt 0.574248 0.334391
vt 0.592326 0.334391
vt 0.574248 0.623627
vt 0.556171 0.334391
vt 0.556171 0.623627
vt 0.538094 0.334391
vt 0.538094 0.623627
vt 0.520017 0.334391
vt 0.520017 0.623627
vt 0.501939 0.334391
vt 0.501939 0.623627
vt 0.483862 0.334391
vt 0.483862 0.623627
vt 0.465785 0.334391
vt 0.465785 0.623627
vt 0.447707 0.334391
vt 0.447707 0.623627
vt 0.429630 0.334391
vt 0.429630 0.623627
vt 0.411553 0.334391
vt 0.411553 0.623627
vt 0.393476 0.334391
vt 0.393476 0.623627
vt 0.375398 0.334391
vt 0.375398 0.623627
vt 0.357321 0.334391
vt 0.357321 0.623627
vt 0.339244 0.334391
vt 0.339244 0.623627
vt 0.321166 0.334391
vt 0.321166 0.623627
vt 0.303089 0.334391
vt 0.303089 0.623627
vt 0.285012 0.334391
vt 0.285012 0.623627
vt 0.266935 0.334391
vt 0.266935 0.623627
vt 0.248857 0.334391
vt 0.248857 0.623627
vt 0.230780 0.334391
vt 0.230780 0.623627
vt 0.212703 0.334391
vt 0.212703 0.623627
vt 0.194625 0.334391
vt 0.194625 0.623627
vt 0.176548 0.334391
vt 0.176548 0.623627
vt 0.158471 0.334391
vt 0.158471 0.623627
vt 0.140394 0.334391
vt 0.140394 0.623627
vt 0.122316 0.334391
vt 0.122316 0.623627
vt 0.104239 0.334391
vt 0.104239 0.623627
vt 0.086162 0.334391
vt 0.086162 0.623627
vt 0.068084 0.334391
vt 0.068084 0.623627
vt 0.050007 0.334391
vt 0.749948 0.717448
vt 0.860384 0.763192
vt 0.814640 0.873627
vt 0.050007 0.623627
vt 0.031930 0.334391
vt 0.031930 0.623627
vt 0.013853 0.334391
vt 0.725345 0.015571
vt 0.625956 0.081981
vt 0.692366 0.181371
vt 0.598345 0.305794
vt 0.580081 0.013560
vt 0.598345 0.013560
vt 0.580081 0.305794
vt 0.561816 0.013560
vt 0.561816 0.305794
vt 0.543551 0.013560
vt 0.543551 0.305794
vt 0.525287 0.013560
vt 0.525287 0.305794
vt 0.507022 0.013560
vt 0.507022 0.305794
vt 0.488758 0.013560
vt 0.488758 0.305794
vt 0.470493 0.013560
vt 0.470493 0.305794
vt 0.452228 0.013560
vt 0.452228 0.305794
vt 0.433964 0.013560
vt 0.433964 0.305794
vt 0.415699 0.013560
vt 0.415699 0.305794
vt 0.397434 0.013560
vt 0.397434 0.305794
vt 0.379170 0.013560
vt 0.379170 0.305794
vt 0.360905 0.013560
vt 0.360905 0.305794
vt 0.342640 0.013560
vt 0.342640 0.305794
vt 0.324376 0.013560
vt 0.324376 0.305794
vt 0.306111 0.013560
vt 0.306111 0.305794
vt 0.287847 0.013560
vt 0.287847 0.305794
vt 0.269582 0.013560
vt 0.269582 0.305794
vt 0.251317 0.013560
vt 0.251317 0.305794
vt 0.233053 0.013560
vt 0.233053 0.305794
vt 0.214788 0.013560
vt 0.214788 0.305794
vt 0.196523 0.013560
vt 0.196523 0.305794
vt 0.178259 0.013560
vt 0.178259 0.305794
vt 0.159994 0.013560
vt 0.159994 0.305794
vt 0.141730 0.013560
vt 0.141730 0.305794
vt 0.123465 0.013560
vt 0.123465 0.305794
vt 0.105200 0.013560
vt 0.105200 0.305794
vt 0.086936 0.013560
vt 0.086936 0.305794
vt 0.068671 0.013560
vt 0.068671 0.305794
vt 0.050406 0.013560
vt 0.772428 0.669612
vt 0.777410 0.647387
vt 0.787922 0.634579
vt 0.620926 0.568382
vt 0.662857 0.505628
vt 0.657875 0.527852
vt 0.050406 0.305794
vt 0.032142 0.013560
vt 0.032142 0.305794
vt 0.013877 0.013560
vt 0.662857 0.279292
vt 0.670684 0.291005
vt 0.685297 0.283194
vt 0.772428 0.443276
vt 0.764602 0.431563
vt 0.749988 0.439374
vt 0.574248 0.905343
vt 0.592326 0.652261
vt 0.574248 0.652261
vt 0.556171 0.905343
vt 0.556171 0.652261
vt 0.538094 0.905343
vt 0.538094 0.652261
vt 0.520017 0.905343
vt 0.520017 0.652261
vt 0.501939 0.652261
vt 0.501939 0.905343
vt 0.483862 0.652261
vt 0.483862 0.905343
vt 0.465785 0.652261
vt 0.465785 0.905343
vt 0.447707 0.652261
vt 0.447707 0.905343
vt 0.429630 0.652261
vt 0.429630 0.905343
vt 0.411553 0.652261
vt 0.411553 0.905343
vt 0.393475 0.652261
vt 0.393475 0.905343
vt 0.375398 0.652261
vt 0.375398 0.905343
vt 0.357321 0.652261
vt 0.357321 0.905343
vt 0.339244 0.652261
vt 0.339244 0.905343
vt 0.321166 0.652261
vt 0.321166 0.905343
vt 0.303089 0.652261
vt 0.303089 0.905343
vt 0.285012 0.652261
vt 0.285012 0.905343
vt 0.266934 0.652261
vt 0.266934 0.905343
vt 0.248857 0.652261
vt 0.248857 0.905343
vt 0.230780 0.652261
vt 0.230780 0.905343
vt 0.212702 0.905343
vt 0.212702 0.652261
vt 0.194625 0.905343
vt 0.194625 0.652261
vt 0.176548 0.905343
vt 0.176548 0.652261
vt 0.158471 0.905343
vt 0.158471 0.652261
vt 0.140393 0.905343
vt 0.140393 0.652261
vt 0.122316 0.905343
vt 0.122316 0.652261
vt 0.104239 0.905343
vt 0.104239 0.652261
vt 0.086161 0.905343
vt 0.086161 0.652261
vt 0.068084 0.905343
vt 0.068084 0.652261
vt 0.050007 0.905343
vt 0.050007 0.652261
vt 0.031929 0.905343
vt 0.031929 0.652261
vt 0.013852 0.905343
vt 0.013852 0.652261
vt 0.914975 0.062604
vt 0.911887 0.013207
vt 0.914975 0.013207
vt 0.911887 0.062604
vt 0.908800 0.013207
vt 0.908800 0.062604
vt 0.905713 0.013207
vt 0.905713 0.062604
vt 0.902626 0.013207
vt 0.902626 0.062604
vt 0.899538 0.013207
vt 0.899538 0.062604
vt 0.896451 0.013207
vt 0.896451 0.062604
vt 0.893364 0.013207
vt 0.893364 0.062604
vt 0.890276 0.013207
vt 0.890276 0.062604
vt 0.887189 0.013207
vt 0.887189 0.062604
vt 0.884102 0.013207
vt 0.884102 0.062604
vt 0.881015 0.013207
vt 0.881015 0.062604
vt 0.877927 0.013207
vt 0.877927 0.062604
vt 0.874840 0.013207
vt 0.874840 0.062604
vt 0.871753 0.013207
vt 0.871753 0.062604
vt 0.868665 0.013207
vt 0.868665 0.062604
vt 0.865578 0.013207
vt 0.865578 0.062604
vt 0.862491 0.013207
vt 0.862491 0.062604
vt 0.859404 0.013207
vt 0.859404 0.062604
vt 0.856316 0.013207
vt 0.856316 0.062604
vt 0.853229 0.013207
vt 0.853229 0.062604
vt 0.850142 0.013207
vt 0.850142 0.062604
vt 0.847054 0.013207
vt 0.847054 0.062604
vt 0.843967 0.013207
vt 0.843967 0.062604
vt 0.840880 0.013207
vt 0.840880 0.062604
vt 0.837793 0.013207
vt 0.837793 0.062604
vt 0.834705 0.013207
vt 0.834705 0.062604
vt 0.831618 0.013207
vt 0.831618 0.062604
vt 0.828531 0.013207
vt 0.828531 0.062604
vt 0.825443 0.013207
vt 0.825443 0.062604
vt 0.822356 0.013207
vt 0.632475 0.713299
vt 0.658244 0.723973
vt 0.647570 0.749741
vt 0.822356 0.062604
vt 0.819269 0.013207
vt 0.819269 0.062604
vt 0.816182 0.013207
vt 0.692027 0.336556
vt 0.668836 0.352051
vt 0.684332 0.375242
vt 0.939053 0.686231
vt 0.935966 0.636834
vt 0.939053 0.636834
vt 0.935966 0.686231
vt 0.932878 0.636834
vt 0.932878 0.686231
vt 0.929791 0.636834
vt 0.929791 0.686231
vt 0.926704 0.636834
vt 0.926704 0.686231
vt 0.923617 0.636834
vt 0.923617 0.686231
vt 0.920529 0.636834
vt 0.920529 0.686231
vt 0.917442 0.636834
vt 0.917442 0.686231
vt 0.914355 0.636834
vt 0.914355 0.686231
vt 0.911267 0.636834
vt 0.911267 0.686231
vt 0.908180 0.636834
vt 0.908180 0.686231
vt 0.905093 0.636834
vt 0.905093 0.686231
vt 0.902006 0.636834
vt 0.902006 0.686231
vt 0.898918 0.636834
vt 0.898918 0.686231
vt 0.895831 0.636834
vt 0.895831 0.686231
vt 0.892744 0.636834
vt 0.892744 0.686231
vt 0.889656 0.636834
vt 0.889656 0.686231
vt 0.886569 0.636834
vt 0.886569 0.686231
vt 0.883482 0.636834
vt 0.883482 0.686231
vt 0.880395 0.636834
vt 0.880395 0.686231
vt 0.877307 0.636834
vt 0.877307 0.686231
vt 0.874220 0.636834
vt 0.874220 0.686231
vt 0.871133 0.636834
vt 0.871133 0.686231
vt 0.868045 0.636834
vt 0.868045 0.686231
vt 0.864958 0.636834
vt 0.864958 0.686231
vt 0.861871 0.636834
vt 0.861871 0.686231
vt 0.858784 0.636834
vt 0.858784 0.686231
vt 0.855696 0.636834
vt 0.855696 0.686231
vt 0.852609 0.636834
vt 0.852609 0.686231
vt 0.849522 0.636834
vt 0.849522 0.686231
vt 0.846434 0.636834
vt 0.632475 0.785534
vt 0.658244 0.796208
vt 0.647570 0.821976
vt 0.846434 0.686231
vt 0.843347 0.636834
vt 0.843347 0.686231
vt 0.840260 0.636834
vt 0.850944 0.095773
vt 0.827753 0.111269
vt 0.843248 0.134459
vt 0.692027 0.601578
vt 0.688179 0.601957
vt 0.684332 0.601578
vt 0.680632 0.600456
vt 0.677222 0.598633
vt 0.674234 0.596181
vt 0.671781 0.593192
vt 0.669958 0.589782
vt 0.668836 0.586082
vt 0.668457 0.582235
vt 0.668836 0.578387
vt 0.669958 0.574687
vt 0.671781 0.571278
vt 0.674234 0.568289
vt 0.677222 0.565836
vt 0.684332 0.562892
vt 0.688179 0.562513
vt 0.692027 0.562892
vt 0.695727 0.564014
vt 0.699136 0.565836
vt 0.702125 0.568289
vt 0.704578 0.571278
vt 0.707523 0.578387
vt 0.707901 0.582235
vt 0.707523 0.586082
vt 0.706400 0.589782
vt 0.704578 0.593192
vt 0.702125 0.596181
vt 0.699136 0.598633
vt 0.813774 0.496013
vt 0.644838 0.240783
vt 0.648686 0.240404
vt 0.652386 0.239282
vt 0.655795 0.237459
vt 0.658784 0.235006
vt 0.661237 0.232018
vt 0.663059 0.228608
vt 0.664182 0.224908
vt 0.664561 0.221061
vt 0.664182 0.217213
vt 0.663059 0.213513
vt 0.661237 0.210104
vt 0.658784 0.207115
vt 0.655795 0.204662
vt 0.652386 0.202840
vt 0.644838 0.201338
vt 0.640991 0.201717
vt 0.637291 0.202840
vt 0.633881 0.204662
vt 0.630893 0.207115
vt 0.628440 0.210104
vt 0.626617 0.213513
vt 0.625116 0.221061
vt 0.625495 0.224908
vt 0.626617 0.228608
vt 0.628440 0.232018
vt 0.630893 0.235006
vt 0.633881 0.237459
vt 0.637291 0.239282
vt 0.632432 0.478966
vt 0.630481 0.479158
vt 0.628530 0.478966
vt 0.626654 0.478397
vt 0.624925 0.477472
vt 0.623410 0.476229
vt 0.622166 0.474713
vt 0.621242 0.472984
vt 0.620672 0.471108
vt 0.620480 0.469157
vt 0.620672 0.467206
vt 0.621242 0.465330
vt 0.622166 0.463601
vt 0.623410 0.462085
vt 0.624925 0.460841
vt 0.628530 0.459348
vt 0.630481 0.459156
vt 0.632432 0.459348
vt 0.634309 0.459917
vt 0.636038 0.460841
vt 0.637553 0.462085
vt 0.638797 0.463601
vt 0.640290 0.467206
vt 0.640482 0.469157
vt 0.640290 0.471108
vt 0.639721 0.472984
vt 0.638797 0.474713
vt 0.637553 0.476229
vt 0.636038 0.477472
vt 0.797202 0.262453
vt 0.707532 0.231152
vt 0.709483 0.230959
vt 0.711359 0.230390
vt 0.713088 0.229466
vt 0.714604 0.228222
vt 0.715847 0.226707
vt 0.716772 0.224978
vt 0.717341 0.223102
vt 0.717533 0.221151
vt 0.717341 0.219199
vt 0.716772 0.217323
vt 0.715847 0.215594
vt 0.714604 0.214079
vt 0.713088 0.212835
vt 0.711359 0.211911
vt 0.707532 0.211150
vt 0.705581 0.211342
vt 0.703705 0.211911
vt 0.701976 0.212835
vt 0.700460 0.214079
vt 0.699216 0.215594
vt 0.698292 0.217323
vt 0.697531 0.221151
vt 0.697723 0.223102
vt 0.698292 0.224978
vt 0.699216 0.226707
vt 0.700460 0.228222
vt 0.701976 0.229466
vt 0.703705 0.230390
vt 0.798784 0.878437
vt 0.782294 0.880061
vt 0.765804 0.878437
vt 0.749948 0.873627
vt 0.735335 0.865816
vt 0.722527 0.855305
vt 0.712015 0.842496
vt 0.704204 0.827883
vt 0.699395 0.812027
vt 0.697770 0.795537
vt 0.699395 0.779048
vt 0.704204 0.763192
vt 0.712015 0.748578
vt 0.722527 0.735770
vt 0.735335 0.725258
vt 0.765804 0.712638
vt 0.782294 0.711014
vt 0.798784 0.712638
vt 0.814640 0.717448
vt 0.829253 0.725258
vt 0.842062 0.735770
vt 0.852573 0.748578
vt 0.865194 0.779048
vt 0.866818 0.795537
vt 0.865194 0.812027
vt 0.860384 0.827883
vt 0.852573 0.842496
vt 0.842062 0.855305
vt 0.829253 0.865816
vt 0.013853 0.623627
vt 0.708856 0.182995
vt 0.725345 0.181371
vt 0.741201 0.176561
vt 0.755814 0.168750
vt 0.768623 0.158238
vt 0.779135 0.145430
vt 0.786945 0.130817
vt 0.791755 0.114961
vt 0.793379 0.098471
vt 0.791755 0.081981
vt 0.786945 0.066125
vt 0.779135 0.051512
vt 0.768623 0.038704
vt 0.755814 0.028192
vt 0.741201 0.020381
vt 0.708856 0.013947
vt 0.692366 0.015571
vt 0.676510 0.020381
vt 0.661897 0.028192
vt 0.649088 0.038704
vt 0.638577 0.051512
vt 0.630766 0.066125
vt 0.624332 0.098471
vt 0.625956 0.114961
vt 0.630766 0.130817
vt 0.638577 0.145430
vt 0.649088 0.158238
vt 0.661897 0.168750
vt 0.676510 0.176561
vt 0.749989 0.509530
vt 0.755379 0.496515
vt 0.772428 0.505628
vt 0.787371 0.517891
vt 0.799635 0.532834
vt 0.808747 0.549883
vt 0.814359 0.568382
vt 0.816254 0.587620
vt 0.814359 0.606858
vt 0.808747 0.625357
vt 0.799635 0.642405
vt 0.787371 0.657348
vt 0.755379 0.678725
vt 0.736881 0.684336
vt 0.717643 0.686231
vt 0.698405 0.684336
vt 0.679906 0.678725
vt 0.662857 0.669612
vt 0.647914 0.657348
vt 0.635651 0.642405
vt 0.626538 0.625357
vt 0.639553 0.619966
vt 0.647364 0.634579
vt 0.764602 0.517341
vt 0.657875 0.647387
vt 0.670684 0.657899
vt 0.777410 0.527853
vt 0.787922 0.540661
vt 0.685297 0.665710
vt 0.795732 0.555274
vt 0.800542 0.571130
vt 0.701153 0.670520
vt 0.717643 0.672144
vt 0.802166 0.587620
vt 0.734132 0.670520
vt 0.800542 0.604110
vt 0.795732 0.619966
vt 0.749989 0.665710
vt 0.764602 0.657899
vt 0.620926 0.606858
vt 0.619032 0.587620
vt 0.626538 0.549883
vt 0.635651 0.532834
vt 0.647914 0.517891
vt 0.679906 0.496515
vt 0.698405 0.490904
vt 0.717643 0.489009
vt 0.736881 0.490904
vt 0.734132 0.504720
vt 0.634743 0.604110
vt 0.717643 0.503096
vt 0.701153 0.504720
vt 0.633119 0.587620
vt 0.634743 0.571130
vt 0.685297 0.509530
vt 0.639553 0.555274
vt 0.647364 0.540661
vt 0.670684 0.517341
vt 0.013877 0.305794
vt 0.802166 0.361284
vt 0.800542 0.377774
vt 0.814359 0.380522
vt 0.816254 0.361284
vt 0.814359 0.342046
vt 0.808747 0.323547
vt 0.799635 0.306499
vt 0.787371 0.291555
vt 0.772428 0.279292
vt 0.755379 0.270179
vt 0.736881 0.264568
vt 0.717643 0.262673
vt 0.698404 0.264568
vt 0.679906 0.270179
vt 0.647914 0.291555
vt 0.635650 0.306499
vt 0.626538 0.323547
vt 0.620926 0.342046
vt 0.619031 0.361284
vt 0.620926 0.380522
vt 0.626538 0.399021
vt 0.635650 0.416069
vt 0.647914 0.431013
vt 0.662857 0.443276
vt 0.679906 0.452389
vt 0.698404 0.458000
vt 0.701153 0.444184
vt 0.685297 0.439374
vt 0.670684 0.431563
vt 0.800542 0.344794
vt 0.795732 0.328938
vt 0.657875 0.421051
vt 0.787922 0.314325
vt 0.647364 0.408243
vt 0.639553 0.393630
vt 0.777410 0.301517
vt 0.764602 0.291005
vt 0.634743 0.377774
vt 0.749988 0.283194
vt 0.633119 0.361284
vt 0.634743 0.344794
vt 0.734132 0.278384
vt 0.717643 0.276760
vt 0.639553 0.328938
vt 0.647364 0.314325
vt 0.701153 0.278384
vt 0.657875 0.301517
vt 0.717643 0.445808
vt 0.717643 0.459895
vt 0.736881 0.458000
vt 0.755379 0.452389
vt 0.787371 0.431013
vt 0.799635 0.416069
vt 0.808747 0.399021
vt 0.795732 0.393630
vt 0.787922 0.408243
vt 0.734132 0.444184
vt 0.777410 0.421051
vt 0.592326 0.905343
vt 0.643870 0.750863
vt 0.640023 0.751242
vt 0.636175 0.750863
vt 0.632475 0.749741
vt 0.629066 0.747919
vt 0.626077 0.745466
vt 0.623624 0.742477
vt 0.621802 0.739068
vt 0.620679 0.735368
vt 0.620301 0.731520
vt 0.620679 0.727673
vt 0.621802 0.723973
vt 0.623624 0.720563
vt 0.626077 0.717574
vt 0.629066 0.715122
vt 0.636175 0.712177
vt 0.640023 0.711798
vt 0.643870 0.712177
vt 0.647570 0.713299
vt 0.650980 0.715122
vt 0.653968 0.717574
vt 0.656421 0.720563
vt 0.659366 0.727673
vt 0.659745 0.731520
vt 0.659366 0.735368
vt 0.658244 0.739068
vt 0.656421 0.742477
vt 0.653968 0.745466
vt 0.650980 0.747919
vt 0.816182 0.062604
vt 0.688179 0.375621
vt 0.692027 0.375242
vt 0.695727 0.374120
vt 0.699136 0.372297
vt 0.702125 0.369845
vt 0.704578 0.366856
vt 0.706400 0.363446
vt 0.707522 0.359747
vt 0.707901 0.355899
vt 0.707523 0.352051
vt 0.706400 0.348352
vt 0.704578 0.344942
vt 0.702125 0.341953
vt 0.699136 0.339501
vt 0.695727 0.337678
vt 0.688179 0.336177
vt 0.684332 0.336556
vt 0.680632 0.337678
vt 0.677222 0.339501
vt 0.674233 0.341953
vt 0.671781 0.344942
vt 0.669958 0.348352
vt 0.668457 0.355899
vt 0.668836 0.359747
vt 0.669958 0.363446
vt 0.671781 0.366856
vt 0.674233 0.369845
vt 0.677222 0.372297
vt 0.680632 0.374120
vt 0.643870 0.823098
vt 0.640023 0.823477
vt 0.636175 0.823098
vt 0.632475 0.821976
vt 0.629066 0.820153
vt 0.626077 0.817701
vt 0.623624 0.814712
vt 0.621802 0.811302
vt 0.620679 0.807603
vt 0.620301 0.803755
vt 0.620679 0.799907
vt 0.621802 0.796208
vt 0.623624 0.792798
vt 0.626077 0.789809
vt 0.629066 0.787357
vt 0.636175 0.784412
vt 0.640023 0.784033
vt 0.643870 0.784412
vt 0.647570 0.785534
vt 0.650980 0.787357
vt 0.653968 0.789809
vt 0.656421 0.792798
vt 0.659366 0.799907
vt 0.659745 0.803755
vt 0.659366 0.807603
vt 0.658244 0.811302
vt 0.656421 0.814712
vt 0.653968 0.817701
vt 0.650980 0.820153
vt 0.840260 0.686231
vt 0.847096 0.134838
vt 0.850944 0.134459
vt 0.854643 0.133337
vt 0.858053 0.131515
vt 0.861042 0.129062
vt 0.863494 0.126073
vt 0.865317 0.122664
vt 0.866439 0.118964
vt 0.866818 0.115116
vt 0.866439 0.111269
vt 0.865317 0.107569
vt 0.863494 0.104159
vt 0.861042 0.101170
vt 0.858053 0.098718
vt 0.854643 0.096895
vt 0.847096 0.095394
vt 0.843248 0.095773
vt 0.839549 0.096895
vt 0.836139 0.098718
vt 0.833150 0.101170
vt 0.830697 0.104159
vt 0.828875 0.107569
vt 0.827374 0.115116
vt 0.827753 0.118964
vt 0.828875 0.122664
vt 0.830697 0.126073
vt 0.833150 0.129062
vt 0.836139 0.131515
vt 0.839549 0.133337
s 0
usemtl マテリアル
f 2/1/1 3/2/1 1/3/1
f 4/4/2 5/5/2 3/2/2
f 6/6/3 7/7/3 5/5/3
f 8/8/4 9/9/4 7/7/4
f 10/10/5 11/11/5 9/9/5
f 12/12/6 13/13/6 11/11/6
f 14/14/7 15/15/7 13/13/7
f 16/16/8 17/17/8 15/15/8
f 18/18/9 19/19/9 17/17/9
f 20/20/10 21/21/10 19/19/10
f 22/22/11 23/23/11 21/21/11
f 24/24/12 25/25/12 23/23/12
f 26/26/13 27/27/13 25/25/13
f 28/28/14 29/29/14 27/27/14
f 30/30/15 31/31/15 29/29/15
f 32/32/16 33/33/16 31/31/16
f 34/34/17 35/35/17 33/33/17
f 36/36/18 37/37/18 35/35/18
f 38/38/19 39/39/19 37/37/19
f 40/40/20 41/41/20 39/39/20
f 42/42/21 43/43/21 41/41/21
f 44/44/22 45/45/22 43/43/22
f 46/46/23 47/47/23 45/45/23
f 48/48/24 49/49/24 47/47/24
f 50/50/25 51/51/25 49/49/25
f 52/52/26 53/53/26 51/51/26
f 54/54/27 55/55/27 53/53/27
f 56/56/28 57/57/28 55/55/28
f 58/58/29 59/59/29 57/57/29
f 60/60/30 61/61/30 59/59/30
f 38/62/31 22/63/31 6/64/31
f 62/65/32 63/66/32 61/61/32
f 64/67/33 1/68/33 63/66/33
f 31/69/34 47/70/34 63/71/34
f 66/72/35 67/73/35 65/74/35
f 68/75/36 69/76/36 67/73/36
f 70/77/37 71/78/37 69/76/37
f 72/79/38 73/80/38 71/78/38
f 74/81/39 75/82/39 73/80/39
f 76/83/40 77/84/40 75/82/40
f 78/85/41 79/86/41 77/84/41
f 80/87/42 81/88/42 79/86/42
f 82/89/43 83/90/43 81/88/43
f 84/91/44 85/92/44 83/90/44
f 86/93/45 87/94/45 85/92/45
f 88/95/46 89/96/46 87/94/46
f 90/97/47 91/98/47 89/96/47
f 92/99/48 93/100/48 91/98/48
f 94/101/49 95/102/49 93/100/49
f 96/103/50 97/104/50 95/102/50
f 98/105/51 99/106/51 97/104/51
f 100/107/52 101/108/52 99/106/52
f 102/109/53 103/110/53 101/108/53
f 104/111/54 105/112/54 103/110/54
f 106/113/55 107/114/55 105/112/55
f 108/115/56 109/116/56 107/114/56
f 110/117/57 111/118/57 109/116/57
f 112/119/58 113/120/58 111/118/58
f 114/121/59 115/122/59 113/120/59
f 116/123/60 117/124/60 115/122/60
f 118/125/61 119/126/61 117/124/61
f 120/127/62 121/128/62 119/126/62
f 122/129/63 123/130/63 121/128/63
f 124/131/64 125/132/64 123/130/64
f 102/133/65 86/134/65 70/135/65
f 126/136/66 127/137/66 125/132/66
f 128/138/67 65/139/67 127/137/67
f 95/140/68 111/141/68 127/142/68
f 130/143/1 131/144/1 129/145/1
f 132/146/2 133/147/2 131/144/2
f 134/148/3 135/149/3 133/147/3
f 136/150/4 137/151/4 135/149/4
f 138/152/5 139/153/5 137/151/5
f 140/154/6 141/155/6 139/153/6
f 142/156/7 143/157/7 141/155/7
f 144/158/8 145/159/8 143/157/8
f 146/160/9 147/161/9 145/159/9
f 148/162/10 149/163/10 147/161/10
f 150/164/11 151/165/11 149/163/11
f 152/166/12 153/167/12 151/165/12
f 154/168/13 155/169/13 153/167/13
f 156/170/14 157/171/14 155/169/14
f 158/172/15 159/173/15 157/171/15
f 160/174/16 161/175/16 159/173/16
f 162/176/17 163/177/17 161/175/17
f 164/178/18 165/179/18 163/177/18
f 166/180/19 167/181/19 165/179/19
f 168/182/20 169/183/20 167/181/20
f 170/184/21 171/185/21 169/183/21
f 172/186/22 173/187/22 171/185/22
f 174/188/23 175/189/23 173/187/23
f 176/190/24 177/191/24 175/189/24
f 178/192/25 179/193/25 177/191/25
f 180/194/26 181/195/26 179/193/26
f 182/196/27 183/197/27 181/195/27
f 184/198/28 185/199/28 183/197/28
f 186/200/29 187/201/29 185/199/29
f 188/202/30 189/203/30 187/201/30
f 166/204/31 150/205/31 134/206/31
f 190/207/32 191/208/32 189/203/32
f 192/209/33 129/210/33 191/208/33
f 159/211/34 175/212/34 191/213/34
f 194/214/1 195/215/1 193/216/1
f 196/217/2 197/218/2 195/215/2
f 198/219/3 199/220/3 197/218/3
f 200/221/4 201/222/4 199/220/4
f 202/223/5 203/224/5 201/222/5
f 204/225/6 205/226/6 203/224/6
f 206/227/7 207/228/7 205/226/7
f 208/229/8 209/230/8 207/228/8
f 210/231/9 211/232/9 209/230/9
f 212/233/10 213/234/10 211/232/10
f 214/235/11 215/236/11 213/234/11
f 216/237/12 217/238/12 215/236/12
f 218/239/13 219/240/13 217/238/13
f 220/241/14 221/242/14 219/240/14
f 222/243/15 223/244/15 221/242/15
f 224/245/16 225/246/16 223/244/16
f 226/247/17 227/248/17 225/246/17
f 228/249/18 229/250/18 227/248/18
f 230/251/19 231/252/19 229/250/19
f 232/253/20 233/254/20 231/252/20
f 234/255/21 235/256/21 233/254/21
f 236/257/22 237/258/22 235/256/22
f 238/259/23 239/260/23 237/258/23
f 240/261/24 241/262/24 239/260/24
f 242/263/25 243/264/25 241/262/25
f 244/265/26 245/266/26 243/264/26
f 246/267/27 247/268/27 245/266/27
f 248/269/28 249/270/28 247/268/28
f 250/271/29 251/272/29 249/270/29
f 252/273/30 253/274/30 251/272/30
f 200/275/31 280/276/31 279/277/31
f 240/278/31 232/279/31 269/280/31
f 254/281/32 255/282/32 253/274/32
f 256/283/33 193/284/33 255/282/33
f 231/285/34 309/286/34 306/287/34
f 199/288/34 295/289/34 290/290/34
f 261/291/17 289/292/17 291/293/17
f 286/294/18 291/293/18 290/295/18
f 278/296/19 290/295/19 295/297/19
f 280/298/20 295/297/20 292/299/20
f 280/298/21 294/300/21 279/301/21
f 279/301/22 293/302/22 284/303/22
f 284/303/23 318/304/23 283/305/23
f 283/305/24 300/306/24 281/307/24
f 281/307/25 301/308/25 282/309/25
f 282/309/26 299/310/26 288/311/26
f 288/311/27 302/312/27 275/313/27
f 275/313/28 297/314/28 276/315/28
f 276/315/29 298/316/29 274/317/29
f 274/317/30 296/318/30 277/319/30
f 277/319/32 317/320/32 272/321/32
f 272/321/33 307/322/33 273/323/33
f 273/323/1 308/324/1 271/325/1
f 271/325/2 306/326/2 287/327/2
f 287/327/3 309/328/3 268/329/3
f 268/329/4 304/330/4 269/331/4
f 267/332/5 304/330/5 305/333/5
f 270/334/6 305/333/6 303/335/6
f 266/336/7 303/335/7 319/337/7
f 264/338/8 319/337/8 310/339/8
f 265/340/9 310/339/9 312/341/9
f 285/342/10 312/341/10 311/343/10
f 257/344/11 311/343/11 316/345/11
f 259/346/12 316/345/12 313/347/12
f 258/348/13 313/347/13 315/349/13
f 263/350/14 315/349/14 314/351/14
f 260/352/15 314/351/15 320/353/15
f 262/354/16 320/353/16 289/355/16
f 322/356/1 323/357/1 321/358/1
f 324/359/2 325/360/2 323/357/2
f 326/361/3 327/362/3 325/360/3
f 328/363/4 329/364/4 327/362/4
f 330/365/5 331/366/5 329/364/5
f 332/367/6 333/368/6 331/366/6
f 334/369/7 335/370/7 333/368/7
f 336/371/8 337/372/8 335/370/8
f 338/373/9 339/374/9 337/372/9
f 340/375/10 341/376/10 339/374/10
f 342/377/11 343/378/11 341/376/11
f 344/379/12 345/380/12 343/378/12
f 346/381/13 347/382/13 345/380/13
f 348/383/14 349/384/14 347/382/14
f 350/385/15 351/386/15 349/384/15
f 352/387/16 353/388/16 351/386/16
f 354/389/17 355/390/17 353/388/17
f 356/391/18 357/392/18 355/390/18
f 358/393/19 359/394/19 357/392/19
f 360/395/20 361/396/20 359/394/20
f 362/397/21 363/398/21 361/396/21
f 364/399/22 365/400/22 363/398/22
f 366/401/23 367/402/23 365/400/23
f 368/403/24 369/404/24 367/402/24
f 370/405/25 371/406/25 369/404/25
f 372/407/26 373/408/26 371/406/26
f 374/409/27 375/410/27 373/408/27
f 376/411/28 377/412/28 375/410/28
f 378/413/29 379/414/29 377/412/29
f 380/415/30 381/416/30 379/414/30
f 358/417/31 342/418/31 326/419/31
f 382/420/32 383/421/32 381/416/32
f 384/422/33 321/423/33 383/421/33
f 351/424/34 367/425/34 383/426/34
f 386/427/1 387/428/1 385/429/1
f 388/430/2 389/431/2 387/428/2
f 390/432/3 391/433/3 389/431/3
f 392/434/4 393/435/4 391/433/4
f 394/436/5 395/437/5 393/435/5
f 396/438/6 397/439/6 395/437/6
f 398/440/7 399/441/7 397/439/7
f 400/442/8 401/443/8 399/441/8
f 402/444/9 403/445/9 401/443/9
f 404/446/10 405/447/10 403/445/10
f 406/448/11 407/449/11 405/447/11
f 408/450/12 409/451/12 407/449/12
f 410/452/13 411/453/13 409/451/13
f 412/454/14 413/455/14 411/453/14
f 414/456/15 415/457/15 413/455/15
f 416/458/16 417/459/16 415/457/16
f 418/460/17 419/461/17 417/459/17
f 420/462/18 421/463/18 419/461/18
f 422/464/19 423/465/19 421/463/19
f 424/466/20 425/467/20 423/465/20
f 426/468/21 427/469/21 425/467/21
f 428/470/22 429/471/22 427/469/22
f 430/472/23 431/473/23 429/471/23
f 432/474/24 433/475/24 431/473/24
f 434/476/25 435/477/25 433/475/25
f 436/478/26 437/479/26 435/477/26
f 438/480/27 439/481/27 437/479/27
f 440/482/28 441/483/28 439/481/28
f 442/484/29 443/485/29 441/483/29
f 444/486/30 445/487/30 443/485/30
f 422/488/31 406/489/31 390/490/31
f 446/491/32 447/492/32 445/487/32
f 448/493/33 385/494/33 447/492/33
f 415/495/34 431/496/34 447/497/34
f 2/1/1 4/4/1 3/2/1
f 4/4/2 6/6/2 5/5/2
f 6/6/3 8/8/3 7/7/3
f 8/8/4 10/10/4 9/9/4
f 10/10/5 12/12/5 11/11/5
f 12/12/6 14/14/6 13/13/6
f 14/14/7 16/16/7 15/15/7
f 16/16/8 18/18/8 17/17/8
f 18/18/9 20/20/9 19/19/9
f 20/20/10 22/22/10 21/21/10
f 22/22/11 24/24/11 23/23/11
f 24/24/12 26/26/12 25/25/12
f 26/26/13 28/28/13 27/27/13
f 28/28/14 30/30/14 29/29/14
f 30/30/15 32/32/15 31/31/15
f 32/32/16 34/34/16 33/33/16
f 34/34/17 36/36/17 35/35/17
f 36/36/18 38/38/18 37/37/18
f 38/38/19 40/40/19 39/39/19
f 40/40/20 42/42/20 41/41/20
f 42/42/21 44/44/21 43/43/21
f 44/44/22 46/46/22 45/45/22
f 46/46/23 48/48/23 47/47/23
f 48/48/24 50/50/24 49/49/24
f 50/50/25 52/52/25 51/51/25
f 52/52/26 54/54/26 53/53/26
f 54/54/27 56/56/27 55/55/27
f 56/56/28 58/58/28 57/57/28
f 58/58/29 60/60/29 59/59/29
f 60/60/30 62/65/30 61/61/30
f 6/64/31 4/498/31 2/499/31
f 2/499/31 64/500/31 62/501/31
f 62/501/31 60/502/31 58/503/31
f 58/503/31 56/504/31 54/505/31
f 54/505/31 52/506/31 50/507/31
f 50/507/31 48/508/31 46/509/31
f 46/509/31 44/510/31 42/511/31
f 42/511/31 40/512/31 38/62/31
f 38/62/31 36/513/31 34/514/31
f 34/514/31 32/515/31 30/516/31
f 30/516/31 28/517/31 26/518/31
f 26/518/31 24/519/31 22/63/31
f 22/63/31 20/520/31 18/521/31
f 18/521/31 16/522/31 14/523/31
f 14/523/31 12/524/31 10/525/31
f 10/525/31 8/526/31 6/64/31
f 6/64/31 2/499/31 62/501/31
f 62/501/31 58/503/31 54/505/31
f 54/505/31 50/507/31 46/509/31
f 46/509/31 42/511/31 38/62/31
f 38/62/31 34/514/31 30/516/31
f 30/516/31 26/518/31 22/63/31
f 22/63/31 18/521/31 14/523/31
f 14/523/31 10/525/31 6/64/31
f 6/64/31 62/501/31 54/505/31
f 54/505/31 46/509/31 38/62/31
f 38/62/31 30/516/31 22/63/31
f 22/63/31 14/523/31 6/64/31
f 6/64/31 54/505/31 38/62/31
f 62/65/32 64/67/32 63/66/32
f 64/67/33 2/527/33 1/68/33
f 63/71/34 1/528/34 3/529/34
f 3/529/34 5/530/34 7/531/34
f 7/531/34 9/532/34 11/533/34
f 11/533/34 13/534/34 15/535/34
f 15/535/34 17/536/34 19/537/34
f 19/537/34 21/538/34 23/539/34
f 23/539/34 25/540/34 27/541/34
f 27/541/34 29/542/34 31/69/34
f 31/69/34 33/543/34 35/544/34
f 35/544/34 37/545/34 39/546/34
f 39/546/34 41/547/34 43/548/34
f 43/548/34 45/549/34 47/70/34
f 47/70/34 49/550/34 51/551/34
f 51/551/34 53/552/34 55/553/34
f 55/553/34 57/554/34 59/555/34
f 59/555/34 61/556/34 63/71/34
f 63/71/34 3/529/34 7/531/34
f 7/531/34 11/533/34 15/535/34
f 15/535/34 19/537/34 23/539/34
f 23/539/34 27/541/34 31/69/34
f 31/69/34 35/544/34 39/546/34
f 39/546/34 43/548/34 47/70/34
f 47/70/34 51/551/34 55/553/34
f 55/553/34 59/555/34 63/71/34
f 63/71/34 7/531/34 15/535/34
f 15/535/34 23/539/34 31/69/34
f 31/69/34 39/546/34 47/70/34
f 47/70/34 55/553/34 63/71/34
f 63/71/34 15/535/34 31/69/34
f 66/72/35 68/75/35 67/73/35
f 68/75/36 70/77/36 69/76/36
f 70/77/37 72/79/37 71/78/37
f 72/79/38 74/81/38 73/80/38
f 74/81/39 76/83/39 75/82/39
f 76/83/40 78/85/40 77/84/40
f 78/85/41 80/87/41 79/86/41
f 80/87/42 82/89/42 81/88/42
f 82/89/43 84/91/43 83/90/43
f 84/91/44 86/93/44 85/92/44
f 86/93/45 88/95/45 87/94/45
f 88/95/46 90/97/46 89/96/46
f 90/97/47 92/99/47 91/98/47
f 92/99/48 94/101/48 93/100/48
f 94/101/49 96/103/49 95/102/49
f 96/103/50 98/105/50 97/104/50
f 98/105/51 100/107/51 99/106/51
f 100/107/52 102/109/52 101/108/52
f 102/109/53 104/111/53 103/110/53
f 104/111/54 106/113/54 105/112/54
f 106/113/55 108/115/55 107/114/55
f 108/115/56 110/117/56 109/116/56
f 110/117/57 112/119/57 111/118/57
f 112/119/58 114/121/58 113/120/58
f 114/121/59 116/123/59 115/122/59
f 116/123/60 118/125/60 117/124/60
f 118/125/61 120/127/61 119/126/61
f 120/127/62 122/129/62 121/128/62
f 122/129/63 124/131/63 123/130/63
f 124/131/64 126/136/64 125/132/64
f 70/135/65 68/557/65 66/558/65
f 66/558/65 128/559/65 126/560/65
f 126/560/65 124/561/65 122/562/65
f 122/562/65 120/563/65 118/564/65
f 118/564/65 116/565/65 114/566/65
f 114/566/65 112/567/65 110/568/65
f 110/568/65 108/569/65 106/570/65
f 106/570/65 104/571/65 102/133/65
f 102/133/65 100/572/65 98/573/65
f 98/573/65 96/574/65 94/575/65
f 94/575/65 92/576/65 90/577/65
f 90/577/65 88/578/65 86/134/65
f 86/134/65 84/579/65 82/580/65
f 82/580/65 80/581/65 78/582/65
f 78/582/65 76/583/65 74/584/65
f 74/584/65 72/585/65 70/135/65
f 70/135/65 66/558/65 126/560/65
f 126/560/65 122/562/65 118/564/65
f 118/564/65 114/566/65 110/568/65
f 110/568/65 106/570/65 102/133/65
f 102/133/65 98/573/65 94/575/65
f 94/575/65 90/577/65 86/134/65
f 86/134/65 82/580/65 78/582/65
f 78/582/65 74/584/65 70/135/65
f 70/135/65 126/560/65 118/564/65
f 118/564/65 110/568/65 102/133/65
f 102/133/65 94/575/65 86/134/65
f 86/134/65 78/582/65 70/135/65
f 70/135/65 118/564/65 102/133/65
f 126/136/66 128/138/66 127/137/66
f 128/138/67 66/586/67 65/139/67
f 127/142/69 65/587/69 67/588/69
f 67/588/70 69/589/70 71/590/70
f 71/590/68 73/591/68 75/592/68
f 75/592/68 77/593/68 79/594/68
f 79/594/68 81/595/68 83/596/68
f 83/596/68 85/597/68 87/598/68
f 87/598/68 89/599/68 91/600/68
f 91/600/71 93/601/71 95/140/71
f 95/140/72 97/602/72 99/603/72
f 99/603/69 101/604/69 103/605/69
f 103/605/68 105/606/68 107/607/68
f 107/607/68 109/608/68 111/141/68
f 111/141/68 113/609/68 115/610/68
f 115/610/68 117/611/68 119/612/68
f 119/612/68 121/613/68 123/614/68
f 123/614/72 125/615/72 127/142/72
f 127/142/68 67/588/68 71/590/68
f 71/590/68 75/592/68 79/594/68
f 79/594/68 83/596/68 87/598/68
f 87/598/68 91/600/68 95/140/68
f 95/140/68 99/603/68 103/605/68
f 103/605/68 107/607/68 111/141/68
f 111/141/68 115/610/68 119/612/68
f 119/612/68 123/614/68 127/142/68
f 127/142/68 71/590/68 79/594/68
f 79/594/68 87/598/68 95/140/68
f 95/140/68 103/605/68 111/141/68
f 111/141/68 119/612/68 127/142/68
f 127/142/68 79/594/68 95/140/68
f 130/143/1 132/146/1 131/144/1
f 132/146/2 134/148/2 133/147/2
f 134/148/3 136/150/3 135/149/3
f 136/150/4 138/152/4 137/151/4
f 138/152/5 140/154/5 139/153/5
f 140/154/6 142/156/6 141/155/6
f 142/156/7 144/158/7 143/157/7
f 144/158/8 146/160/8 145/159/8
f 146/160/9 148/162/9 147/161/9
f 148/162/10 150/164/10 149/163/10
f 150/164/11 152/166/11 151/165/11
f 152/166/12 154/168/12 153/167/12
f 154/168/13 156/170/13 155/169/13
f 156/170/14 158/172/14 157/171/14
f 158/172/15 160/174/15 159/173/15
f 160/174/16 162/176/16 161/175/16
f 162/176/17 164/178/17 163/177/17
f 164/178/18 166/180/18 165/179/18
f 166/180/19 168/182/19 167/181/19
f 168/182/20 170/184/20 169/183/20
f 170/184/21 172/186/21 171/185/21
f 172/186/22 174/188/22 173/187/22
f 174/188/23 176/190/23 175/189/23
f 176/190/24 178/192/24 177/191/24
f 178/192/25 180/194/25 179/193/25
f 180/194/26 182/196/26 181/195/26
f 182/196/27 184/198/27 183/197/27
f 184/198/28 186/200/28 185/199/28
f 186/200/29 188/202/29 187/201/29
f 188/202/30 190/207/30 189/203/30
f 134/206/31 132/616/31 130/617/31
f 130/617/31 192/618/31 190/619/31
f 190/619/31 188/620/31 186/621/31
f 186/621/31 184/622/31 182/623/31
f 182/623/31 180/624/31 178/625/31
f 178/625/31 176/626/31 174/627/31
f 174/627/31 172/628/31 170/629/31
f 170/629/31 168/630/31 166/204/31
f 166/204/31 164/631/31 162/632/31
f 162/632/31 160/633/31 158/634/31
f 158/634/31 156/635/31 154/636/31
f 154/636/31 152/637/31 150/205/31
f 150/205/31 148/638/31 146/639/31
f 146/639/31 144/640/31 142/641/31
f 142/641/31 140/642/31 138/643/31
f 138/643/31 136/644/31 134/206/31
f 134/206/31 130/617/31 190/619/31
f 190/619/31 186/621/31 182/623/31
f 182/623/31 178/625/31 174/627/31
f 174/627/31 170/629/31 166/204/31
f 166/204/31 162/632/31 158/634/31
f 158/634/31 154/636/31 150/205/31
f 150/205/31 146/639/31 142/641/31
f 142/641/31 138/643/31 134/206/31
f 134/206/31 190/619/31 182/623/31
f 182/623/31 174/627/31 166/204/31
f 166/204/31 158/634/31 150/205/31
f 150/205/31 142/641/31 134/206/31
f 134/206/31 182/623/31 166/204/31
f 190/207/32 192/209/32 191/208/32
f 192/209/33 130/645/33 129/210/33
f 191/213/34 129/646/34 131/647/34
f 131/647/34 133/648/34 135/649/34
f 135/649/34 137/650/34 139/651/34
f 139/651/34 141/652/34 143/653/34
f 143/653/34 145/654/34 147/655/34
f 147/655/34 149/656/34 151/657/34
f 151/657/34 153/658/34 155/659/34
f 155/659/34 157/660/34 159/211/34
f 159/211/34 161/661/34 163/662/34
f 163/662/34 165/663/34 167/664/34
f 167/664/34 169/665/34 171/666/34
f 171/666/34 173/667/34 175/212/34
f 175/212/34 177/668/34 179/669/34
f 179/669/34 181/670/34 183/671/34
f 183/671/34 185/672/34 187/673/34
f 187/673/34 189/674/34 191/213/34
f 191/213/34 131/647/34 135/649/34
f 135/649/34 139/651/34 143/653/34
f 143/653/34 147/655/34 151/657/34
f 151/657/34 155/659/34 159/211/34
f 159/211/34 163/662/34 167/664/34
f 167/664/34 171/666/34 175/212/34
f 175/212/34 179/669/34 183/671/34
f 183/671/34 187/673/34 191/213/34
f 191/213/34 135/649/34 143/653/34
f 143/653/34 151/657/34 159/211/34
f 159/211/34 167/664/34 175/212/34
f 175/212/34 183/671/34 191/213/34
f 191/213/34 143/653/34 159/211/34
f 194/214/1 196/217/1 195/215/1
f 196/217/2 198/219/2 197/218/2
f 198/219/3 200/221/3 199/220/3
f 200/221/4 202/223/4 201/222/4
f 202/223/5 204/225/5 203/224/5
f 204/225/6 206/227/6 205/226/6
f 206/227/7 208/229/7 207/228/7
f 208/229/8 210/231/8 209/230/8
f 210/231/9 212/233/9 211/232/9
f 212/233/10 214/235/10 213/234/10
f 214/235/11 216/237/11 215/236/11
f 216/237/12 218/239/12 217/238/12
f 218/239/13 220/241/13 219/240/13
f 220/241/14 222/243/14 221/242/14
f 222/243/15 224/245/15 223/244/15
f 224/245/16 226/247/16 225/246/16
f 226/247/17 228/249/17 227/248/17
f 228/249/18 230/251/18 229/250/18
f 230/251/19 232/253/19 231/252/19
f 232/253/20 234/255/20 233/254/20
f 234/255/21 236/257/21 235/256/21
f 236/257/22 238/259/22 237/258/22
f 238/259/23 240/261/23 239/260/23
f 240/261/24 242/263/24 241/262/24
f 242/263/25 244/265/25 243/264/25
f 244/265/26 246/267/26 245/266/26
f 246/267/27 248/269/27 247/268/27
f 248/269/28 250/271/28 249/270/28
f 250/271/29 252/273/29 251/272/29
f 252/273/30 254/281/30 253/274/30
f 277/675/31 222/676/31 220/677/31
f 220/677/31 218/678/31 216/679/31
f 216/679/31 214/680/31 212/681/31
f 212/681/31 210/682/31 208/683/31
f 208/683/31 206/684/31 204/685/31
f 204/685/31 202/686/31 200/275/31
f 200/275/31 198/687/31 196/688/31
f 196/688/31 194/689/31 256/690/31
f 256/690/31 254/691/31 252/692/31
f 252/692/31 250/693/31 248/694/31
f 248/694/31 246/695/31 285/696/31
f 248/694/31 285/696/31 257/697/31
f 256/690/31 252/692/31 248/694/31
f 200/275/31 196/688/31 256/690/31
f 208/683/31 204/685/31 200/275/31
f 216/679/31 212/681/31 208/683/31
f 277/675/31 220/677/31 216/679/31
f 274/698/31 277/675/31 216/679/31
f 248/694/31 257/697/31 259/699/31
f 248/694/31 259/699/31 258/700/31
f 276/701/31 274/698/31 216/679/31
f 275/702/31 276/701/31 216/679/31
f 256/690/31 248/694/31 258/700/31
f 256/690/31 258/700/31 263/703/31
f 288/704/31 275/702/31 216/679/31
f 282/705/31 288/704/31 216/679/31
f 256/690/31 263/703/31 260/706/31
f 256/690/31 260/706/31 262/707/31
f 282/705/31 216/679/31 208/683/31
f 281/708/31 282/705/31 208/683/31
f 200/275/31 256/690/31 262/707/31
f 200/275/31 262/707/31 261/709/31
f 283/710/31 281/708/31 208/683/31
f 284/711/31 283/710/31 208/683/31
f 200/275/31 261/709/31 286/712/31
f 200/275/31 286/712/31 278/713/31
f 284/711/31 208/683/31 200/275/31
f 279/277/31 284/711/31 200/275/31
f 200/275/31 278/713/31 280/276/31
f 285/696/31 246/695/31 244/714/31
f 244/714/31 242/715/31 240/278/31
f 240/278/31 238/716/31 236/717/31
f 236/717/31 234/718/31 232/279/31
f 232/279/31 230/719/31 228/720/31
f 228/720/31 226/721/31 224/722/31
f 224/722/31 222/676/31 277/675/31
f 224/722/31 277/675/31 272/723/31
f 232/279/31 228/720/31 224/722/31
f 240/278/31 236/717/31 232/279/31
f 285/696/31 244/714/31 240/278/31
f 265/724/31 285/696/31 240/278/31
f 224/722/31 272/723/31 273/725/31
f 224/722/31 273/725/31 271/726/31
f 264/727/31 265/724/31 240/278/31
f 266/728/31 264/727/31 240/278/31
f 232/279/31 224/722/31 271/726/31
f 232/279/31 271/726/31 287/729/31
f 270/730/31 266/728/31 240/278/31
f 267/731/31 270/730/31 240/278/31
f 232/279/31 287/729/31 268/732/31
f 269/280/31 267/731/31 240/278/31
f 232/279/31 268/732/31 269/280/31
f 254/281/32 256/283/32 255/282/32
f 256/283/33 194/733/33 193/284/33
f 300/734/34 318/735/34 207/736/34
f 207/736/34 209/737/34 211/738/34
f 211/738/34 213/739/34 215/740/34
f 215/740/34 217/741/34 219/742/34
f 219/742/34 221/743/34 223/744/34
f 223/744/34 225/745/34 227/746/34
f 227/746/34 229/747/34 231/285/34
f 231/285/34 233/748/34 235/749/34
f 235/749/34 237/750/34 239/751/34
f 239/751/34 241/752/34 243/753/34
f 243/753/34 245/754/34 247/755/34
f 247/755/34 249/756/34 251/757/34
f 251/757/34 253/758/34 255/759/34
f 255/759/34 320/760/34 314/761/34
f 255/759/34 314/761/34 315/762/34
f 247/755/34 251/757/34 255/759/34
f 239/751/34 243/753/34 247/755/34
f 231/285/34 235/749/34 239/751/34
f 223/744/34 227/746/34 231/285/34
f 215/740/34 219/742/34 223/744/34
f 207/736/34 211/738/34 215/740/34
f 301/763/34 300/734/34 207/736/34
f 299/764/34 301/763/34 207/736/34
f 247/755/34 255/759/34 315/762/34
f 247/755/34 315/762/34 313/765/34
f 299/764/34 207/736/34 215/740/34
f 302/766/34 299/764/34 215/740/34
f 247/755/34 313/765/34 316/767/34
f 247/755/34 316/767/34 311/768/34
f 297/769/34 302/766/34 215/740/34
f 298/770/34 297/769/34 215/740/34
f 239/751/34 247/755/34 311/768/34
f 239/751/34 311/768/34 312/771/34
f 298/770/34 215/740/34 223/744/34
f 296/772/34 298/770/34 223/744/34
f 239/751/34 312/771/34 310/773/34
f 239/751/34 310/773/34 319/774/34
f 317/775/34 296/772/34 223/744/34
f 307/776/34 317/775/34 223/744/34
f 239/751/34 319/774/34 303/777/34
f 239/751/34 303/777/34 305/778/34
f 307/776/34 223/744/34 231/285/34
f 308/779/34 307/776/34 231/285/34
f 231/285/34 239/751/34 305/778/34
f 231/285/34 305/778/34 304/780/34
f 306/287/34 308/779/34 231/285/34
f 231/285/34 304/780/34 309/286/34
f 289/781/34 320/760/34 255/759/34
f 255/759/34 193/782/34 195/783/34
f 195/783/34 197/784/34 199/288/34
f 199/288/34 201/785/34 203/786/34
f 203/786/34 205/787/34 207/736/34
f 207/736/34 318/735/34 293/788/34
f 207/736/34 293/788/34 294/789/34
f 199/288/34 203/786/34 207/736/34
f 255/759/34 195/783/34 199/288/34
f 291/790/34 289/781/34 255/759/34
f 290/290/34 291/790/34 255/759/34
f 199/288/34 207/736/34 294/789/34
f 199/288/34 294/789/34 292/791/34
f 290/290/34 255/759/34 199/288/34
f 199/288/34 292/791/34 295/289/34
f 261/291/17 262/792/17 289/292/17
f 286/294/18 261/291/18 291/293/18
f 278/296/19 286/294/19 290/295/19
f 280/298/20 278/296/20 295/297/20
f 280/298/21 292/299/21 294/300/21
f 279/301/22 294/300/22 293/302/22
f 284/303/23 293/302/23 318/304/23
f 283/305/24 318/304/24 300/306/24
f 281/307/25 300/306/25 301/308/25
f 282/309/26 301/308/26 299/310/26
f 288/311/27 299/310/27 302/312/27
f 275/313/28 302/312/28 297/314/28
f 276/315/29 297/314/29 298/316/29
f 274/317/30 298/316/30 296/318/30
f 277/319/32 296/318/32 317/320/32
f 272/321/33 317/320/33 307/322/33
f 273/323/1 307/322/1 308/324/1
f 271/325/2 308/324/2 306/326/2
f 287/327/3 306/326/3 309/328/3
f 268/329/4 309/328/4 304/330/4
f 267/332/5 269/331/5 304/330/5
f 270/334/6 267/332/6 305/333/6
f 266/336/7 270/334/7 303/335/7
f 264/338/8 266/336/8 319/337/8
f 265/340/9 264/338/9 310/339/9
f 285/342/10 265/340/10 312/341/10
f 257/344/11 285/342/11 311/343/11
f 259/346/12 257/344/12 316/345/12
f 258/348/13 259/346/13 313/347/13
f 263/350/14 258/348/14 315/349/14
f 260/352/15 263/350/15 314/351/15
f 262/354/16 260/352/16 320/353/16
f 322/356/1 324/359/1 323/357/1
f 324/359/2 326/361/2 325/360/2
f 326/361/3 328/363/3 327/362/3
f 328/363/4 330/365/4 329/364/4
f 330/365/5 332/367/5 331/366/5
f 332/367/6 334/369/6 333/368/6
f 334/369/7 336/371/7 335/370/7
f 336/371/8 338/373/8 337/372/8
f 338/373/9 340/375/9 339/374/9
f 340/375/10 342/377/10 341/376/10
f 342/377/11 344/379/11 343/378/11
f 344/379/12 346/381/12 345/380/12
f 346/381/13 348/383/13 347/382/13
f 348/383/14 350/385/14 349/384/14
f 350/385/15 352/387/15 351/386/15
f 352/387/16 354/389/16 353/388/16
f 354/389/17 356/391/17 355/390/17
f 356/391/18 358/393/18 357/392/18
f 358/393/19 360/395/19 359/394/19
f 360/395/20 362/397/20 361/396/20
f 362/397/21 364/399/21 363/398/21
f 364/399/22 366/401/22 365/400/22
f 366/401/23 368/403/23 367/402/23
f 368/403/24 370/405/24 369/404/24
f 370/405/25 372/407/25 371/406/25
f 372/407/26 374/409/26 373/408/26
f 374/409/27 376/411/27 375/410/27
f 376/411/28 378/413/28 377/412/28
f 378/413/29 380/415/29 379/414/29
f 380/415/30 382/420/30 381/416/30
f 326/419/31 324/793/31 322/794/31
f 322/794/31 384/795/31 382/796/31
f 382/796/31 380/797/31 378/798/31
f 378/798/31 376/799/31 374/800/31
f 374/800/31 372/801/31 370/802/31
f 370/802/31 368/803/31 366/804/31
f 366/804/31 364/805/31 362/806/31
f 362/806/31 360/807/31 358/417/31
f 358/417/31 356/808/31 354/809/31
f 354/809/31 352/810/31 350/811/31
f 350/811/31 348/812/31 346/813/31
f 346/813/31 344/814/31 342/418/31
f 342/418/31 340/815/31 338/816/31
f 338/816/31 336/817/31 334/818/31
f 334/818/31 332/819/31 330/820/31
f 330/820/31 328/821/31 326/419/31
f 326/419/31 322/794/31 382/796/31
f 382/796/31 378/798/31 374/800/31
f 374/800/31 370/802/31 366/804/31
f 366/804/31 362/806/31 358/417/31
f 358/417/31 354/809/31 350/811/31
f 350/811/31 346/813/31 342/418/31
f 342/418/31 338/816/31 334/818/31
f 334/818/31 330/820/31 326/419/31
f 326/419/31 382/796/31 374/800/31
f 374/800/31 366/804/31 358/417/31
f 358/417/31 350/811/31 342/418/31
f 342/418/31 334/818/31 326/419/31
f 326/419/31 374/800/31 358/417/31
f 382/420/32 384/422/32 383/421/32
f 384/422/33 322/822/33 321/423/33
f 383/426/34 321/823/34 323/824/34
f 323/824/34 325/825/34 327/826/34
f 327/826/34 329/827/34 331/828/34
f 331/828/34 333/829/34 335/830/34
f 335/830/34 337/831/34 339/832/34
f 339/832/34 341/833/34 343/834/34
f 343/834/34 345/835/34 347/836/34
f 347/836/34 349/837/34 351/424/34
f 351/424/34 353/838/34 355/839/34
f 355/839/34 357/840/34 359/841/34
f 359/841/34 361/842/34 363/843/34
f 363/843/34 365/844/34 367/425/34
f 367/425/34 369/845/34 371/846/34
f 371/846/34 373/847/34 375/848/34
f 375/848/34 377/849/34 379/850/34
f 379/850/34 381/851/34 383/426/34
f 383/426/34 323/824/34 327/826/34
f 327/826/34 331/828/34 335/830/34
f 335/830/34 339/832/34 343/834/34
f 343/834/34 347/836/34 351/424/34
f 351/424/34 355/839/34 359/841/34
f 359/841/34 363/843/34 367/425/34
f 367/425/34 371/846/34 375/848/34
f 375/848/34 379/850/34 383/426/34
f 383/426/34 327/826/34 335/830/34
f 335/830/34 343/834/34 351/424/34
f 351/424/34 359/841/34 367/425/34
f 367/425/34 375/848/34 383/426/34
f 383/426/34 335/830/34 351/424/34
f 386/427/1 388/430/1 387/428/1
f 388/430/2 390/432/2 389/431/2
f 390/432/3 392/434/3 391/433/3
f 392/434/4 394/436/4 393/435/4
f 394/436/5 396/438/5 395/437/5
f 396/438/6 398/440/6 397/439/6
f 398/440/7 400/442/7 399/441/7
f 400/442/8 402/444/8 401/443/8
f 402/444/9 404/446/9 403/445/9
f 404/446/10 406/448/10 405/447/10
f 406/448/11 408/450/11 407/449/11
f 408/450/12 410/452/12 409/451/12
f 410/452/13 412/454/13 411/453/13
f 412/454/14 414/456/14 413/455/14
f 414/456/15 416/458/15 415/457/15
f 416/458/16 418/460/16 417/459/16
f 418/460/17 420/462/17 419/461/17
f 420/462/18 422/464/18 421/463/18
f 422/464/19 424/466/19 423/465/19
f 424/466/20 426/468/20 425/467/20
f 426/468/21 428/470/21 427/469/21
f 428/470/22 430/472/22 429/471/22
f 430/472/23 432/474/23 431/473/23
f 432/474/24 434/476/24 433/475/24
f 434/476/25 436/478/25 435/477/25
f 436/478/26 438/480/26 437/479/26
f 438/480/27 440/482/27 439/481/27
f 440/482/28 442/484/28 441/483/28
f 442/484/29 444/486/29 443/485/29
f 444/486/30 446/491/30 445/487/30
f 390/490/31 388/852/31 386/853/31
f 386/853/31 448/854/31 446/855/31
f 446/855/31 444/856/31 442/857/31
f 442/857/31 440/858/31 438/859/31
f 438/859/31 436/860/31 434/861/31
f 434/861/31 432/862/31 430/863/31
f 430/863/31 428/864/31 426/865/31
f 426/865/31 424/866/31 422/488/31
f 422/488/31 420/867/31 418/868/31
f 418/868/31 416/869/31 414/870/31
f 414/870/31 412/871/31 410/872/31
f 410/872/31 408/873/31 406/489/31
f 406/489/31 404/874/31 402/875/31
f 402/875/31 400/876/31 398/877/31
f 398/877/31 396/878/31 394/879/31
f 394/879/31 392/880/31 390/490/31
f 390/490/31 386/853/31 446/855/31
f 446/855/31 442/857/31 438/859/31
f 438/859/31 434/861/31 430/863/31
f 430/863/31 426/865/31 422/488/31
f 422/488/31 418/868/31 414/870/31
f 414/870/31 410/872/31 406/489/31
f 406/489/31 402/875/31 398/877/31
f 398/877/31 394/879/31 390/490/31
f 390/490/31 446/855/31 438/859/31
f 438/859/31 430/863/31 422/488/31
f 422/488/31 414/870/31 406/489/31
f 406/489/31 398/877/31 390/490/31
f 390/490/31 438/859/31 422/488/31
f 446/491/32 448/493/32 447/492/32
f 448/493/33 386/881/33 385/494/33
f 447/497/34 385/882/34 387/883/34
f 387/883/34 389/884/34 391/885/34
f 391/885/34 393/886/34 395/887/34
f 395/887/34 397/888/34 399/889/34
f 399/889/34 401/890/34 403/891/34
f 403/891/34 405/892/34 407/893/34
f 407/893/34 409/894/34 411/895/34
f 411/895/34 413/896/34 415/495/34
f 415/495/34 417/897/34 419/898/34
f 419/898/34 421/899/34 423/900/34
f 423/900/34 425/901/34 427/902/34
f 427/902/34 429/903/34 431/496/34
f 431/496/34 433/904/34 435/905/34
f 435/905/34 437/906/34 439/907/34
f 439/907/34 441/908/34 443/909/34
f 443/909/34 445/910/34 447/497/34
f 447/497/34 387/883/34 391/885/34
f 391/885/34 395/887/34 399/889/34
f 399/889/34 403/891/34 407/893/34
f 407/893/34 411/895/34 415/495/34
f 415/495/34 419/898/34 423/900/34
f 423/900/34 427/902/34 431/496/34
f 431/496/34 435/905/34 439/907/34
f 439/907/34 443/909/34 447/497/34
f 447/497/34 391/885/34 399/889/34
f 399/889/34 407/893/34 415/495/34
f 415/495/34 423/900/34 431/496/34
f 431/496/34 439/907/34 447/497/34
f 447/497/34 399/889/34 415/495/34
