# Blender 4.1.1
# www.blender.org
mtllib Enemy.mtl
o Cube
v -1.000000 2.055710 1.000000
v -1.000000 1.113669 1.000000
v -1.000000 2.055710 -1.000000
v -1.000000 1.113669 -1.000000
v 1.000000 2.055710 1.000000
v 1.000000 1.113669 1.000000
v 1.000000 2.055710 -1.000000
v 1.000000 1.113669 -1.000000
v 0.000000 0.584689 1.000000
v 0.000000 2.584689 -1.000000
v 0.000000 0.584689 -1.000000
v 0.000000 2.584689 1.000000
v -1.000000 1.584689 1.000000
v 1.000000 1.584689 -1.000000
v -1.000000 1.584689 -1.000000
v 1.000000 1.584689 1.000000
v 0.000000 1.584689 1.500000
v 0.000000 1.584689 -1.500000
v 1.000000 0.584689 0.000000
v -1.000000 2.584689 0.000000
v 1.000000 2.584689 0.000000
v -1.000000 0.584689 0.000000
v 0.000000 0.084689 0.000000
v 0.000000 3.084689 0.000000
v -1.500000 1.584689 0.000000
v 1.500000 1.584689 0.000000
vn 0.4082 0.8165 -0.4082
vn 0.4472 -0.0000 -0.8944
vn 0.8944 -0.0000 0.4472
vn -0.4082 -0.8165 -0.4082
vn -0.8944 -0.0000 -0.4472
vn -0.4472 -0.0000 0.8944
vn 0.4472 -0.0000 0.8944
vn 0.4236 -0.8007 -0.4236
vn -0.4472 -0.0000 -0.8944
vn -0.4236 0.8007 -0.4236
vn -0.2302 -0.4352 -0.8704
vn 0.2302 -0.4352 0.8704
vn -0.2302 -0.4352 0.8704
vn -0.8704 -0.4352 -0.2302
vn 0.8704 -0.4352 0.2302
vn 0.2302 -0.4352 -0.8704
vn 0.8704 -0.4352 -0.2302
vn -0.8704 -0.4352 0.2302
vn -0.4236 0.8007 0.4236
vn 0.4236 -0.8007 0.4236
vn -0.8944 -0.0000 0.4472
vn -0.4082 -0.8165 0.4082
vn 0.8944 -0.0000 -0.4472
vn 0.4082 0.8165 0.4082
vn 0.4236 0.8007 -0.4236
vn 0.2302 0.4352 -0.8704
vn 0.8704 0.4352 0.2302
vn -0.4236 -0.8007 -0.4236
vn -0.8704 0.4352 -0.2302
vn -0.2302 0.4352 0.8704
vn 0.2302 0.4352 0.8704
vn 0.4082 -0.8165 -0.4082
vn -0.2302 0.4352 -0.8704
vn -0.4082 0.8165 -0.4082
vn -0.4082 0.8165 0.4082
vn 0.4082 -0.8165 0.4082
vn -0.8704 0.4352 0.2302
vn -0.4236 -0.8007 0.4236
vn 0.8704 0.4352 -0.2302
vn 0.4236 0.8007 0.4236
vt 0.178731 0.148495
vt 0.390034 0.124899
vt 0.295608 0.237230
vt 0.661534 0.160961
vt 0.693142 0.004754
vt 0.749695 0.044839
vt 0.146733 0.839026
vt 0.178884 0.682914
vt 0.233669 0.724518
vt 0.588231 0.459394
vt 0.769222 0.412786
vt 0.686394 0.533922
vt 0.491002 0.385575
vt 0.519849 0.233935
vt 0.574789 0.275215
vt 0.320537 0.610101
vt 0.352691 0.454109
vt 0.407218 0.495930
vt 0.803271 0.622658
vt 0.917296 0.496461
vt 0.393772 0.311757
vt 0.629314 0.317043
vt 0.778171 0.249875
vt 0.288465 0.766110
vt 0.437296 0.698699
vt 0.462153 0.537214
vt 0.263706 0.927521
vt 0.803503 0.088541
vt 0.115114 0.995246
vt 0.212782 0.358366
vt 0.591968 0.646252
vt 0.712352 0.766399
vt 0.004754 0.911458
vt 0.058562 0.955159
vt 0.269648 0.004754
vt 0.544549 0.072504
vt 0.030062 0.750133
vt 0.203824 0.521442
vt 0.064707 0.274693
s 0
usemtl Material
f 21/1/1 10/2/1 24/3/1
f 18/4/2 7/5/2 14/6/2
f 26/7/3 5/8/3 16/9/3
f 22/10/4 11/11/4 23/12/4
f 25/13/5 3/14/5 15/15/5
f 17/16/6 1/17/6 13/18/6
f 5/8/7 17/16/7 16/9/7
f 19/19/8 11/11/8 8/20/8
f 3/14/9 18/4/9 15/15/9
f 20/21/10 10/2/10 3/14/10
f 4/22/11 18/4/11 11/23/11
f 6/24/12 17/16/12 9/25/12
f 17/16/13 2/26/13 9/25/13
f 25/13/14 4/22/14 22/10/14
f 26/7/15 6/24/15 19/27/15
f 18/4/16 8/28/16 11/23/16
f 8/29/17 26/7/17 19/27/17
f 2/26/18 25/13/18 22/10/18
f 12/30/19 20/21/19 1/17/19
f 9/31/20 19/19/20 6/32/20
f 1/17/21 25/13/21 13/18/21
f 9/31/22 22/10/22 23/12/22
f 7/33/23 26/7/23 14/34/23
f 12/30/24 21/1/24 24/3/24
f 21/1/25 7/35/25 10/2/25
f 18/4/26 10/36/26 7/5/26
f 26/7/27 21/37/27 5/8/27
f 22/10/28 4/22/28 11/11/28
f 25/13/29 20/21/29 3/14/29
f 17/16/30 12/38/30 1/17/30
f 5/8/31 12/38/31 17/16/31
f 19/19/32 23/12/32 11/11/32
f 3/14/33 10/36/33 18/4/33
f 20/21/34 24/3/34 10/2/34
f 4/22/9 15/15/9 18/4/9
f 6/24/7 16/9/7 17/16/7
f 17/16/6 13/18/6 2/26/6
f 25/13/5 15/15/5 4/22/5
f 26/7/3 16/9/3 6/24/3
f 18/4/2 14/6/2 8/28/2
f 8/29/23 14/34/23 26/7/23
f 2/26/21 13/18/21 25/13/21
f 12/30/35 24/3/35 20/21/35
f 9/31/36 23/12/36 19/19/36
f 1/17/37 20/21/37 25/13/37
f 9/31/38 2/26/38 22/10/38
f 7/33/39 21/37/39 26/7/39
f 12/30/40 5/39/40 21/1/40
