# Blender 4.1.1
# www.blender.org
mtllib Head.mtl
o Cube
v 1.200000 0.800000 -0.500000
v 1.200000 -0.800000 -0.500000
v 1.200000 0.800000 0.500000
v 1.200000 -0.800000 0.500000
v -1.200000 0.800000 -0.500000
v -1.200000 -0.800000 -0.500000
v -1.200000 0.800000 0.500000
v -1.200000 -0.800000 0.500000
v 1.200000 0.000000 -0.500000
v -1.200000 0.000000 0.500000
v 1.200000 0.000000 0.500000
v -1.200000 0.000000 -0.500000
v 1.200000 -0.400000 -0.500000
v 1.200000 -0.400000 0.500000
v -1.200000 -0.400000 -0.500000
v -1.200000 -0.400000 0.500000
v 0.000000 -0.800000 -0.500000
v 0.000000 0.800000 0.500000
v 0.000000 -0.800000 0.500000
v 0.000000 0.800000 -0.500000
v 0.000000 0.000000 -0.500000
v 0.000000 0.000000 0.500000
v 0.000000 -0.400000 0.961444
v 0.000000 -0.400000 -0.500000
v 1.200000 -0.600000 -0.500000
v 1.200000 -0.600000 0.500000
v -1.200000 -0.600000 -0.500000
v -1.200000 -0.600000 0.500000
v 0.000000 -0.600000 -0.500000
v 0.000000 -0.600000 0.500000
v -0.600000 -0.800000 -0.500000
v -0.600000 0.800000 0.500000
v -0.600000 0.000000 0.500000
v -0.600000 -0.400000 0.500000
v -0.600000 -0.800000 0.500000
v -0.600000 0.800000 -0.500000
v -0.600000 0.000000 -0.500000
v -0.600000 -0.400000 -0.500000
v -0.600000 -0.600000 -0.500000
v -0.600000 -0.600000 0.500000
v 0.600000 -0.800000 0.500000
v 0.600000 0.800000 -0.500000
v 0.600000 0.000000 -0.500000
v 0.600000 -0.400000 -0.500000
v 0.600000 -0.800000 -0.500000
v 0.600000 0.800000 0.500000
v 0.600000 0.000000 0.500000
v 0.600000 -0.400000 0.500000
v 0.600000 -0.600000 0.500000
v 0.600000 -0.600000 -0.500000
vn -0.0000 1.0000 -0.0000
vn -0.0000 -0.0000 1.0000
vn -1.0000 -0.0000 -0.0000
vn -0.0000 -1.0000 -0.0000
vn 1.0000 -0.0000 -0.0000
vn -0.0000 -0.0000 -1.0000
vn 0.4499 0.6748 0.5850
vn -0.4499 0.6748 0.5850
vn 0.2925 -0.8774 0.3803
vn -0.2925 -0.8774 0.3803
vt 0.875000 0.500000
vt 0.812500 0.750000
vt 0.812500 0.500000
vt 0.625000 0.937500
vt 0.500000 1.000000
vt 0.500000 0.937500
vt 0.625000 0.000000
vt 0.500000 0.250000
vt 0.500000 0.000000
vt 0.375000 0.500000
vt 0.312500 0.750000
vt 0.312500 0.500000
vt 0.625000 0.500000
vt 0.500000 0.750000
vt 0.500000 0.500000
vt 0.625000 0.437500
vt 0.500000 0.437500
vt 0.437500 0.500000
vt 0.437500 0.437500
vt 0.437500 0.750000
vt 0.437500 0.250000
vt 0.437500 0.000000
vt 0.437500 1.000000
vt 0.437500 0.937500
vt 0.406250 1.000000
vt 0.406250 0.937500
vt 0.406250 0.250000
vt 0.406250 0.000000
vt 0.406250 0.750000
vt 0.406250 0.500000
vt 0.406250 0.437500
vt 0.437500 0.312500
vt 0.406250 0.375000
vt 0.406250 0.312500
vt 0.437500 0.812500
vt 0.406250 0.875000
vt 0.406250 0.812500
vt 0.500000 0.875000
vt 0.437500 0.875000
vt 0.500000 0.312500
vt 0.437500 0.375000
vt 0.625000 0.312500
vt 0.500000 0.375000
vt 0.250000 0.500000
vt 0.187500 0.750000
vt 0.187500 0.500000
vt 0.625000 0.812500
vt 0.500000 0.812500
vt 0.750000 0.500000
vt 0.687500 0.750000
vt 0.687500 0.500000
vt 0.375000 0.875000
vt 0.375000 0.812500
vt 0.375000 0.375000
vt 0.375000 0.312500
vt 0.375000 0.437500
vt 0.375000 0.750000
vt 0.375000 0.250000
vt 0.375000 0.000000
vt 0.375000 1.000000
vt 0.375000 0.937500
vt 0.125000 0.750000
vt 0.125000 0.500000
vt 0.625000 0.250000
vt 0.625000 0.875000
vt 0.750000 0.750000
vt 0.625000 0.750000
vt 0.625000 0.375000
vt 0.250000 0.750000
vt 0.875000 0.750000
vt 0.625000 1.000000
s 0
usemtl Material
f 5/1/1 32/2/1 36/3/1
f 32/4/2 10/5/2 33/6/2
f 7/7/3 12/8/3 10/9/3
f 2/10/4 41/11/4 45/12/4
f 1/13/5 11/14/5 9/15/5
f 42/16/6 9/15/6 43/17/6
f 43/17/6 13/18/6 44/19/6
f 9/15/5 14/20/5 13/18/5
f 10/9/3 15/21/3 16/22/3
f 33/6/2 16/23/2 34/24/2
f 34/24/2 28/25/2 40/26/2
f 16/22/3 27/27/3 28/28/3
f 13/18/5 26/29/5 25/30/5
f 44/19/6 25/30/6 50/31/6
f 38/32/6 29/33/6 39/34/6
f 48/35/2 30/36/2 49/37/2
f 48/35/7 22/38/7 23/39/7
f 37/40/6 24/41/6 38/32/6
f 36/42/6 21/43/6 37/40/6
f 17/44/4 35/45/4 31/46/4
f 46/47/2 22/38/2 47/48/2
f 20/49/1 46/50/1 42/51/1
f 49/37/2 19/52/2 41/53/2
f 39/34/6 17/54/6 31/55/6
f 50/31/6 2/10/6 45/56/6
f 25/30/5 4/57/5 2/10/5
f 28/28/3 6/58/3 8/59/3
f 40/26/2 8/60/2 35/61/2
f 30/36/2 35/61/2 19/52/2
f 27/27/6 31/55/6 6/58/6
f 31/46/4 8/62/4 6/63/4
f 5/64/6 37/40/6 12/8/6
f 12/8/6 38/32/6 15/21/6
f 15/21/6 39/34/6 27/27/6
f 30/36/2 34/24/2 40/26/2
f 22/38/8 34/24/8 23/39/8
f 18/65/2 33/6/2 22/38/2
f 36/3/1 18/66/1 20/49/1
f 29/33/6 45/56/6 17/54/6
f 26/29/2 41/53/2 4/57/2
f 42/51/1 3/67/1 1/13/1
f 3/67/2 47/48/2 11/14/2
f 11/14/2 48/35/2 14/20/2
f 14/20/2 49/37/2 26/29/2
f 24/41/6 50/31/6 29/33/6
f 21/43/6 44/19/6 24/41/6
f 20/68/6 43/17/6 21/43/6
f 45/12/4 19/69/4 17/44/4
f 5/1/1 7/70/1 32/2/1
f 32/4/2 7/71/2 10/5/2
f 7/7/3 5/64/3 12/8/3
f 2/10/4 4/57/4 41/11/4
f 1/13/5 3/67/5 11/14/5
f 42/16/6 1/13/6 9/15/6
f 43/17/6 9/15/6 13/18/6
f 9/15/5 11/14/5 14/20/5
f 10/9/3 12/8/3 15/21/3
f 33/6/2 10/5/2 16/23/2
f 34/24/2 16/23/2 28/25/2
f 16/22/3 15/21/3 27/27/3
f 13/18/5 14/20/5 26/29/5
f 44/19/6 13/18/6 25/30/6
f 38/32/6 24/41/6 29/33/6
f 48/35/9 23/39/9 30/36/9
f 48/35/2 47/48/2 22/38/2
f 37/40/6 21/43/6 24/41/6
f 36/42/6 20/68/6 21/43/6
f 17/44/4 19/69/4 35/45/4
f 46/47/2 18/65/2 22/38/2
f 20/49/1 18/66/1 46/50/1
f 49/37/2 30/36/2 19/52/2
f 39/34/6 29/33/6 17/54/6
f 50/31/6 25/30/6 2/10/6
f 25/30/5 26/29/5 4/57/5
f 28/28/3 27/27/3 6/58/3
f 40/26/2 28/25/2 8/60/2
f 30/36/2 40/26/2 35/61/2
f 27/27/6 39/34/6 31/55/6
f 31/46/4 35/45/4 8/62/4
f 5/64/6 36/42/6 37/40/6
f 12/8/6 37/40/6 38/32/6
f 15/21/6 38/32/6 39/34/6
f 30/36/10 23/39/10 34/24/10
f 22/38/2 33/6/2 34/24/2
f 18/65/2 32/4/2 33/6/2
f 36/3/1 32/2/1 18/66/1
f 29/33/6 50/31/6 45/56/6
f 26/29/2 49/37/2 41/53/2
f 42/51/1 46/50/1 3/67/1
f 3/67/2 46/47/2 47/48/2
f 11/14/2 47/48/2 48/35/2
f 14/20/2 48/35/2 49/37/2
f 24/41/6 44/19/6 50/31/6
f 21/43/6 43/17/6 44/19/6
f 20/68/6 42/16/6 43/17/6
f 45/12/4 41/11/4 19/69/4
